<svg width="128" height="128" xmlns="http://www.w3.org/2000/svg"><path d="M61.111 90.955a5.5 5.5 0 0 1 5.778 0l29.234 18.046a.5.5 0 0 0 .749-.544l-8.129-33.38a5.5 5.5 0 0 1 1.786-5.495l26.196-22.227a.5.5 0 0 0-.286-.88l-34.258-2.584a5.5 5.5 0 0 1-4.674-3.396L64.463 8.712a.5.5 0 0 0-.926 0L50.493 40.495a5.5 5.5 0 0 1-4.674 3.396L11.56 46.475a.5.5 0 0 0-.286.88L37.47 69.582a5.5 5.5 0 0 1 1.786 5.495l-8.129 33.38a.5.5 0 0 0 .749.544L61.11 90.955z" stroke="#000" stroke-width="5" fill="none" fill-rule="evenodd"/></svg>