<svg width="128" height="128" xmlns="http://www.w3.org/2000/svg"><g fill="#000" fill-rule="evenodd"><path d="M55.064 75.428L41.776 62.166a4.561 4.561 0 0 0-6.442 0 4.54 4.54 0 0 0 0 6.43L51.44 84.667a4.551 4.551 0 0 0 3.66 1.311 4.55 4.55 0 0 0 3.596-1.316l34.97-34.902a4.54 4.54 0 0 0 0-6.43 4.561 4.561 0 0 0-6.441 0l-32.16 32.097z"/><path d="M64 119C33.624 119 9 94.376 9 64S33.624 9 64 9s55 24.624 55 55-24.624 55-55 55zm0-7c26.51 0 48-21.49 48-48S90.51 16 64 16 16 37.49 16 64s21.49 48 48 48z"/></g></svg>