<svg width="128" height="128" xmlns="http://www.w3.org/2000/svg"><g fill="#000" fill-rule="evenodd"><path d="M20.136 52.015l-4.461-4.46a3.5 3.5 0 0 1 0-4.95l6.93-6.93a3.5 3.5 0 0 1 4.95 0l4.46 4.46a2.1 2.1 0 0 0 3.585-1.484V32.5a3.5 3.5 0 0 1 3.5-3.5h9.8a3.5 3.5 0 0 1 3.5 3.5v5.928a2.1 2.1 0 0 0 3.585 1.485l4.238-4.238a3.5 3.5 0 0 1 4.95 0l6.929 6.93a3.5 3.5 0 0 1 0 4.95l-4.46 4.46a2.1 2.1 0 0 0 1.484 3.585H75.5a3.5 3.5 0 0 1 3.5 3.5v9.8a3.5 3.5 0 0 1-3.5 3.5h-6.15a2.1 2.1 0 0 0-1.486 3.585l4.238 4.238a3.5 3.5 0 0 1 0 4.95l-6.93 6.929a3.5 3.5 0 0 1-4.95 0l-4.237-4.238A2.1 2.1 0 0 0 52.4 89.35V95.5a3.5 3.5 0 0 1-3.5 3.5h-9.8a3.5 3.5 0 0 1-3.5-3.5v-6.374a2.1 2.1 0 0 0-3.585-1.485l-4.46 4.461a3.5 3.5 0 0 1-4.95 0l-6.93-6.93a3.5 3.5 0 0 1 0-4.95l4.238-4.237a2.1 2.1 0 0 0-1.485-3.585H12.5A3.5 3.5 0 0 1 9 68.9v-9.8a3.5 3.5 0 0 1 3.5-3.5h6.15a2.1 2.1 0 0 0 1.486-3.585zM44 81c9.389 0 17-7.611 17-17s-7.611-17-17-17-17 7.611-17 17 7.611 17 17 17zM84.727 34.836l-2.294-2.294a1.8 1.8 0 0 1 0-2.545l3.564-3.564a1.8 1.8 0 0 1 2.545 0l2.294 2.294a1.08 1.08 0 0 0 1.844-.764V24.8a1.8 1.8 0 0 1 1.8-1.8h5.04a1.8 1.8 0 0 1 1.8 1.8v3.048a1.08 1.08 0 0 0 1.844.764l2.18-2.18a1.8 1.8 0 0 1 2.545 0l3.563 3.565a1.8 1.8 0 0 1 0 2.545l-2.294 2.294a1.08 1.08 0 0 0 .764 1.844h3.278a1.8 1.8 0 0 1 1.8 1.8v5.04a1.8 1.8 0 0 1-1.8 1.8h-3.163a1.08 1.08 0 0 0-.764 1.844l2.18 2.18a1.8 1.8 0 0 1 0 2.545l-3.564 3.563a1.8 1.8 0 0 1-2.546 0l-2.18-2.179a1.08 1.08 0 0 0-1.843.764V57.2a1.8 1.8 0 0 1-1.8 1.8h-5.04a1.8 1.8 0 0 1-1.8-1.8v-3.278a1.08 1.08 0 0 0-1.844-.764l-2.294 2.294a1.8 1.8 0 0 1-2.545 0l-3.564-3.563a1.8 1.8 0 0 1 0-2.546l2.18-2.18a1.08 1.08 0 0 0-.765-1.843H80.8a1.8 1.8 0 0 1-1.8-1.8v-5.04a1.8 1.8 0 0 1 1.8-1.8h3.163a1.08 1.08 0 0 0 .764-1.844zM96.5 49a8.5 8.5 0 1 0 0-17 8.5 8.5 0 0 0 0 17zM84.727 80.836l-2.294-2.294a1.8 1.8 0 0 1 0-2.545l3.564-3.564a1.8 1.8 0 0 1 2.545 0l2.294 2.294a1.08 1.08 0 0 0 1.844-.764V70.8a1.8 1.8 0 0 1 1.8-1.8h5.04a1.8 1.8 0 0 1 1.8 1.8v3.048a1.08 1.08 0 0 0 1.844.764l2.18-2.18a1.8 1.8 0 0 1 2.545 0l3.563 3.565a1.8 1.8 0 0 1 0 2.545l-2.294 2.294a1.08 1.08 0 0 0 .764 1.844h3.278a1.8 1.8 0 0 1 1.8 1.8v5.04a1.8 1.8 0 0 1-1.8 1.8h-3.163a1.08 1.08 0 0 0-.764 1.844l2.18 2.18a1.8 1.8 0 0 1 0 2.545l-3.564 3.563a1.8 1.8 0 0 1-2.546 0l-2.18-2.179a1.08 1.08 0 0 0-1.843.764v3.163a1.8 1.8 0 0 1-1.8 1.8h-5.04a1.8 1.8 0 0 1-1.8-1.8v-3.278a1.08 1.08 0 0 0-1.844-.764l-2.294 2.294a1.8 1.8 0 0 1-2.545 0l-3.564-3.563a1.8 1.8 0 0 1 0-2.546l2.18-2.18a1.08 1.08 0 0 0-.765-1.843H80.8a1.8 1.8 0 0 1-1.8-1.8v-5.04a1.8 1.8 0 0 1 1.8-1.8h3.163a1.08 1.08 0 0 0 .764-1.844zM96.5 95a8.5 8.5 0 1 0 0-17 8.5 8.5 0 0 0 0 17z"/></g></svg>