<svg width="128" height="128" xmlns="http://www.w3.org/2000/svg"><g fill="none" fill-rule="evenodd"><path d="M85.5 16.5h-5v9h-33v-9h-5v9H29a7.5 7.5 0 0 0-7.5 7.5v4.5h85V33a7.5 7.5 0 0 0-7.5-7.5H85.5v-9zM106.5 48.5h-85V103a7.5 7.5 0 0 0 7.5 7.5h70a7.5 7.5 0 0 0 7.5-7.5V48.5z" stroke="#000" stroke-width="5"/><path d="M56.575 88.356L46.12 77.899a3.584 3.584 0 1 0-5.07 5.07L53.724 95.64a3.577 3.577 0 0 0 2.88 1.033 3.577 3.577 0 0 0 2.83-1.037L86.95 68.119a3.584 3.584 0 1 0-5.069-5.07L56.575 88.357z" fill="#000"/></g></svg>