<svg width="128" height="128" xmlns="http://www.w3.org/2000/svg"><g fill="none" fill-rule="evenodd"><rect stroke="#000" stroke-width="5" x="11.5" y="21.5" width="105" height="85" rx="5"/><rect fill="#000" x="50" y="26" width="28" height="6" rx="3"/><rect fill="#000" x="62" y="53" width="48" height="6" rx="3"/><rect fill="#000" x="62" y="64" width="48" height="6" rx="3"/><rect fill="#000" x="62" y="75" width="28" height="6" rx="3"/><path d="M26 81h20a8 8 0 0 1 8 8v3a5 5 0 0 1-5 5H23a5 5 0 0 1-5-5v-3a8 8 0 0 1 8-8z" fill="#000"/><circle fill="#000" cx="35.5" cy="65.5" r="12.5"/></g></svg>