<svg width="128" height="128" xmlns="http://www.w3.org/2000/svg"><path d="M51 5h26a5 5 0 0 1 5 5v83.338a6 6 0 0 1-.855 3.087l-15.43 25.717a2 2 0 0 1-3.43 0l-15.43-25.717A6 6 0 0 1 46 93.338V10a5 5 0 0 1 5-5zm-1 32v52h4V37h-4zm-4-12v6h36v-6H46zm6.744 71.089a.877.877 0 0 0-1.319 1.115l11.709 20.295a1 1 0 0 0 1.732 0l11.68-20.245a.913.913 0 0 0-1.365-1.165l-3.178 2.57a1 1 0 0 1-1.272-.011l-6.095-5.114a1 1 0 0 0-1.278-.006l-6.234 5.126a1 1 0 0 1-1.272 0l-3.108-2.565z" fill="#000" fill-rule="evenodd"/></svg>