<svg width="128" height="128" xmlns="http://www.w3.org/2000/svg"><g stroke="#000" fill="none" fill-rule="evenodd"><path d="M45.916 33.403l.187 2.674H18.167c-3.582 0-6.667 3.64-6.667 8.317v56.79c0 4.676 3.085 8.316 6.667 8.316h91.666c3.582 0 6.667-3.64 6.667-8.317V44.394c0-4.676-3.085-8.317-6.667-8.317H81.897l.187-2.674c.027-.39.041-.783.041-1.178 0-7.663-5.137-13.725-11.25-13.725h-13.75c-6.113 0-11.25 6.062-11.25 13.725 0 .395.014.788.041 1.178z" stroke-width="5"/><circle stroke-width="6" cx="64" cy="71" r="24"/></g></svg>