<svg width="110" height="110" xmlns="http://www.w3.org/2000/svg"><path d="M55 110C24.624 110 0 85.376 0 55S24.624 0 55 0s55 24.624 55 55-24.624 55-55 55zm22.999-55a2.245 2.245 0 0 0-.673-1.675l-26.033-25.66a2.325 2.325 0 0 0-3.254 0 2.245 2.245 0 0 0 0 3.207L72.517 55 48.039 79.128a2.245 2.245 0 0 0 0 3.208 2.325 2.325 0 0 0 3.254 0l26.033-25.661A2.245 2.245 0 0 0 77.999 55zm-15.365 0a2.245 2.245 0 0 0-.673-1.675l-26.033-25.66a2.325 2.325 0 0 0-3.254 0 2.245 2.245 0 0 0 0 3.207L57.152 55 32.674 79.128a2.245 2.245 0 0 0 0 3.208 2.325 2.325 0 0 0 3.254 0l26.033-25.661A2.245 2.245 0 0 0 62.634 55z" fill="#000" fill-rule="evenodd"/></svg>