<svg width="128" height="128" xmlns="http://www.w3.org/2000/svg"><path d="M31.025 100.495l69.475.005c11.046 0 20-8.954 20-20 0-10.168-7.629-18.687-17.64-19.862l-3.07-.361.995-2.927A13.48 13.48 0 0 0 101.5 53c0-7.456-6.044-13.5-13.5-13.5a13.43 13.43 0 0 0-8.353 2.894l-2.387 1.883-1.386-2.706A23.995 23.995 0 0 0 54.5 28.5c-13.166 0-23.871 10.608-23.999 23.762l-.02 2.16-2.14.293C17.031 56.267 8.5 65.973 8.5 77.5c0 12.527 10.025 22.742 22.525 22.995z" stroke="#000" stroke-width="5" fill="none" fill-rule="evenodd"/></svg>