<svg width="128" height="128" xmlns="http://www.w3.org/2000/svg"><path d="M82.13 77.568l-9.38-11.486h10.884l-21.14-26.02h10.774L51.5 13 29.732 40.061h10.775l-21.141 26.02H30.25L9 92.103h37.524v15.977c0 .303-.131.592-.36.79l-4.983 4.301a1.043 1.043 0 0 0 .676 1.83h19.286c.302 0 .59-.132.786-.362a1.044 1.044 0 0 0-.11-1.468l-4.983-4.302a1.043 1.043 0 0 1-.36-.789V92.102H76.7l-7.7 9.429h22.073v9.398a.613.613 0 0 1-.212.464l-2.931 2.53a.613.613 0 0 0 .397 1.077h11.346a.614.614 0 0 0 .398-1.076l-2.932-2.53a.613.613 0 0 1-.212-.465v-9.398H119l-12.5-15.307h6.402l-12.435-15.306h6.338L94 55 81.195 70.918h6.338l-5.402 6.65z" fill="#000" fill-rule="evenodd"/></svg>