<svg width="128" height="128" xmlns="http://www.w3.org/2000/svg"><g fill="none" fill-rule="evenodd"><path d="M20 15h88c6.075 0 11 4.925 11 11v75.625c0 6.075-4.925 11-11 11H20c-6.075 0-11-4.925-11-11V26c0-6.075 4.925-11 11-11zm35.076 6.875l-8.867 11.826H14.5v4.674c0 .76.616 1.375 1.375 1.375h96.25c.76 0 1.375-.616 1.375-1.375V26a4.125 4.125 0 0 0-4.125-4.125h-54.3zm-39.201 0c-.76 0-1.375.616-1.375 1.375v5.5c0 .76.616 1.375 1.375 1.375H44.75c.76 0 1.375-.616 1.375-1.375v-5.5c0-.76-.616-1.375-1.375-1.375H15.875z" fill="#000"/><circle stroke="#FFF" stroke-width="4" cx="64" cy="74" r="24"/><path d="M64 60c-7.732 0-14 6.268-14 14" stroke="#FFF" stroke-width="4" stroke-linecap="round"/></g></svg>