<svg width="128" height="128" xmlns="http://www.w3.org/2000/svg"><path d="M24 26h80a5 5 0 0 1 5 5v10a5 5 0 0 1-5 5H24a5 5 0 0 1-5-5V31a5 5 0 0 1 5-5zm71 15a5 5 0 1 0 0-10 5 5 0 0 0 0 10zm-16 0a5 5 0 1 0 0-10 5 5 0 0 0 0 10zM24 54h80a5 5 0 0 1 5 5v10a5 5 0 0 1-5 5H24a5 5 0 0 1-5-5V59a5 5 0 0 1 5-5zm71 15a5 5 0 1 0 0-10 5 5 0 0 0 0 10zm-16 0a5 5 0 1 0 0-10 5 5 0 0 0 0 10zM24 82h80a5 5 0 0 1 5 5v10a5 5 0 0 1-5 5H24a5 5 0 0 1-5-5V87a5 5 0 0 1 5-5zm71 15a5 5 0 1 0 0-10 5 5 0 0 0 0 10zm-16 0a5 5 0 1 0 0-10 5 5 0 0 0 0 10z" fill="#000" fill-rule="evenodd"/></svg>