<svg width="128" height="128" xmlns="http://www.w3.org/2000/svg"><g fill="#000" fill-rule="evenodd"><path d="M64 86.999a2.245 2.245 0 0 1-1.675-.673l-25.66-26.033a2.325 2.325 0 0 1 0-3.254 2.245 2.245 0 0 1 3.207 0L64 81.517l24.128-24.478a2.245 2.245 0 0 1 3.208 0 2.325 2.325 0 0 1 0 3.254L65.675 86.326a2.245 2.245 0 0 1-1.675.673zm0-15.365a2.245 2.245 0 0 1-1.675-.673l-25.66-26.033a2.325 2.325 0 0 1 0-3.254 2.245 2.245 0 0 1 3.207 0L64 66.152l24.128-24.478a2.245 2.245 0 0 1 3.208 0 2.325 2.325 0 0 1 0 3.254L65.675 70.961a2.245 2.245 0 0 1-1.675.673z"/><path d="M64 119C33.624 119 9 94.376 9 64S33.624 9 64 9s55 24.624 55 55-24.624 55-55 55zm0-7c26.51 0 48-21.49 48-48S90.51 16 64 16 16 37.49 16 64s21.49 48 48 48z"/></g></svg>