<svg width="128" height="128" xmlns="http://www.w3.org/2000/svg"><g fill="#000" fill-rule="evenodd"><path d="M35.24 23h79.52c1.237 0 2.24.796 2.24 1.778v12.444c0 .982-1.003 1.778-2.24 1.778H35.24c-1.237 0-2.24-.796-2.24-1.778V24.778C33 23.796 34.003 23 35.24 23zm-10.756-2v20.385h-5.632V28.027c-.912.693-1.794 1.254-2.646 1.682-.852.428-1.92.839-3.206 1.23v-4.566c1.896-.61 3.368-1.344 4.416-2.201A8.98 8.98 0 0 0 19.877 21h4.607zM35.24 56h79.52c1.237 0 2.24.796 2.24 1.778v12.444c0 .982-1.003 1.778-2.24 1.778H35.24c-1.237 0-2.24-.796-2.24-1.778V57.778C33 56.796 34.003 56 35.24 56zm-6.533 18.385H12c.191-1.65.772-3.202 1.743-4.656.97-1.453 2.791-3.17 5.462-5.147 1.632-1.212 2.675-2.133 3.13-2.762.457-.629.685-1.226.685-1.79 0-.611-.226-1.133-.677-1.566-.451-.433-1.019-.65-1.702-.65-.711 0-1.292.224-1.744.67-.45.447-.754 1.235-.909 2.366l-5.578-.452c.219-1.567.62-2.79 1.203-3.67.584-.88 1.406-1.554 2.468-2.024S18.613 54 20.491 54c1.959 0 3.483.223 4.572.67 1.09.447 1.946 1.132 2.57 2.058.625.925.937 1.961.937 3.11 0 1.221-.357 2.388-1.073 3.5-.715 1.112-2.017 2.333-3.903 3.664-1.121.775-1.871 1.317-2.25 1.627a20.6 20.6 0 0 0-1.332 1.217h8.695v4.539zM35.24 89h79.52c1.237 0 2.24.796 2.24 1.778v12.444c0 .982-1.003 1.778-2.24 1.778H35.24c-1.237 0-2.24-.796-2.24-1.778V90.778C33 89.796 34.003 89 35.24 89zm-17.676 4.139l-5.263-.944c.437-1.677 1.278-2.962 2.522-3.855 1.244-.893 3.006-1.34 5.284-1.34 2.616 0 4.508.488 5.674 1.463 1.167.975 1.75 2.201 1.75 3.678 0 .866-.237 1.65-.71 2.351-.475.702-1.19 1.317-2.147 1.846.775.191 1.367.415 1.777.67.666.41 1.183.95 1.552 1.62.37.67.554 1.47.554 2.4 0 1.166-.306 2.285-.916 3.356-.611 1.07-1.49 1.896-2.639 2.474-1.148.58-2.657.869-4.525.869-1.823 0-3.261-.215-4.314-.643-1.053-.428-1.919-1.055-2.598-1.88-.679-.825-1.2-1.862-1.565-3.11l5.564-.739c.22 1.122.559 1.899 1.019 2.332.46.432 1.046.649 1.757.649.747 0 1.37-.273 1.866-.82.497-.547.745-1.276.745-2.188 0-.93-.24-1.65-.718-2.16-.478-.51-1.128-.766-1.948-.766-.437 0-1.039.11-1.805.328l.288-3.978c.31.046.551.068.724.068.73 0 1.338-.232 1.825-.697.488-.465.732-1.016.732-1.654 0-.61-.182-1.099-.547-1.463-.365-.365-.866-.547-1.504-.547-.656 0-1.19.198-1.6.595-.41.396-.688 1.091-.834 2.085z"/></g></svg>