<svg width="128" height="128" xmlns="http://www.w3.org/2000/svg" xmlns:xlink="http://www.w3.org/1999/xlink"><defs><path d="M68.382 14.765l46.91 93.82a5 5 0 0 1-4.472 7.236H17a5 5 0 0 1-4.472-7.236l46.91-93.82a5 5 0 0 1 8.944 0zM63.91 25.821L42.244 70.516l8.71 5.305 8.358-10 18.655 10 6.04-10-20.097-40z" id="a"/></defs><g fill="none" fill-rule="evenodd"><use fill="#000" xlink:href="#a"/><path stroke="#000" stroke-width="6" d="M65.699 16.107a2 2 0 0 0-3.578 0l-46.91 93.82A2 2 0 0 0 17 112.82h93.82a2 2 0 0 0 1.789-2.895l-46.91-93.82zm-5.652 53.512L51.6 79.726l-13.243-8.065 25.506-52.618 23.57 46.911-8.37 13.857L60.047 69.62z"/></g></svg>