<svg width="110" height="110" xmlns="http://www.w3.org/2000/svg"><path d="M15 0h80c8.284 0 15 6.716 15 15v80c0 8.284-6.716 15-15 15H15c-8.284 0-15-6.716-15-15V15C0 6.716 6.716 0 15 0zm49.268 55l17.96-17.78a5.944 5.944 0 0 0 0-8.467c-2.361-2.337-6.19-2.337-8.552 0l-17.961 17.78-17.39-17.215c-2.363-2.338-6.192-2.338-8.554 0a5.944 5.944 0 0 0 0 8.467L47.162 55l-17.39 17.215a5.944 5.944 0 0 0 0 8.467c2.361 2.338 6.19 2.338 8.552 0l17.39-17.215 17.962 17.78c2.362 2.337 6.19 2.337 8.553 0a5.944 5.944 0 0 0 0-8.467L64.268 55z" fill="#000" fill-rule="evenodd"/></svg>