<svg width="128" height="128" xmlns="http://www.w3.org/2000/svg" xmlns:xlink="http://www.w3.org/1999/xlink"><defs><path d="M64.402 6a3 3 0 0 0-2.775 1.862L48.582 39.645a3 3 0 0 1-2.55 1.852l-34.258 2.584a3 3 0 0 0-1.715 5.28l26.197 22.227a3 3 0 0 1 .974 2.997l-8.129 33.38a3 3 0 0 0 4.49 3.263l29.235-18.046a2.998 2.998 0 0 1 1.576-.447V6z" id="a"/><mask id="b" maskContentUnits="userSpaceOnUse" maskUnits="objectBoundingBox" x="0" y="0" width="55.402" height="105.675" fill="#fff"><use xlink:href="#a"/></mask></defs><use mask="url(#b)" xlink:href="#a" stroke="#000" stroke-width="10" fill="none" fill-rule="evenodd" stroke-dasharray="198"/></svg>