<svg width="128" height="128" xmlns="http://www.w3.org/2000/svg"><g fill="none" fill-rule="evenodd"><path stroke="#000" stroke-width="5" d="M11.5 13.5h105v105h-105z"/><path d="M69.005 78.146h-13.19a1.664 1.664 0 0 1-1.663-1.664c0-2.832.32-5.13.963-6.897a15.278 15.278 0 0 1 2.868-4.838c1.27-1.46 4.123-4.029 8.56-7.707 2.365-1.927 3.548-3.693 3.548-5.299 0-1.605-.475-2.853-1.424-3.743-.948-.89-2.386-1.336-4.313-1.336-2.072 0-3.787.686-5.145 2.058-.762.77-1.498 2.589-2.208 5.456a2 2 0 0 1-2.187 1.504l-12.92-1.599a2 2 0 0 1-1.68-2.528c1.774-6.281 3.844-10.56 6.209-12.839C50.379 34.904 56.443 33 64.617 33c6.364 0 11.502 1.328 15.414 3.985C85.344 40.575 88 45.363 88 51.347c0 2.482-.686 4.875-2.058 7.182-1.372 2.306-4.175 5.123-8.407 8.45-2.949 2.336-4.81 4.212-5.583 5.628-.4.73-.72 1.998-.965 3.807a2 2 0 0 1-1.982 1.732zm-10.423 4.422h7.822a5 5 0 0 1 5 5v5.72a5 5 0 0 1-5 5h-7.822a5 5 0 0 1-5-5v-5.72a5 5 0 0 1 5-5z" fill="#000"/></g></svg>