<svg width="128" height="128" xmlns="http://www.w3.org/2000/svg"><path d="M29.908 46.879l-6.372-6.373a5 5 0 0 1 0-7.071l9.899-9.9a5 5 0 0 1 7.071 0l6.373 6.373A3 3 0 0 0 52 27.787V19a5 5 0 0 1 5-5h14a5 5 0 0 1 5 5v8.468a3 3 0 0 0 5.121 2.121l6.054-6.053a5 5 0 0 1 7.071 0l9.9 9.899a5 5 0 0 1 0 7.071l-6.373 6.373A3 3 0 0 0 99.894 52H109a5 5 0 0 1 5 5v14a5 5 0 0 1-5 5h-8.787a3 3 0 0 0-2.121 5.121l6.054 6.054a5 5 0 0 1 0 7.071l-9.9 9.9a5 5 0 0 1-7.07 0l-6.055-6.054A3 3 0 0 0 76 100.213V109a5 5 0 0 1-5 5H57a5 5 0 0 1-5-5v-9.106a3 3 0 0 0-5.121-2.12l-6.373 6.372a5 5 0 0 1-7.071 0l-9.9-9.9a5 5 0 0 1 0-7.07l6.054-6.055A3 3 0 0 0 27.468 76H19a5 5 0 0 1-5-5V57a5 5 0 0 1 5-5h8.787a3 3 0 0 0 2.121-5.121zM64 88c13.255 0 24-10.745 24-24S77.255 40 64 40 40 50.745 40 64s10.745 24 24 24z" fill="#000" fill-rule="evenodd"/></svg>