<svg width="128" height="128" xmlns="http://www.w3.org/2000/svg"><g fill="#000" fill-rule="evenodd"><path d="M16 22h16a2 2 0 0 1 2 2v16a2 2 0 0 1-2 2H16a2 2 0 0 1-2-2V24a2 2 0 0 1 2-2zm26 1h71a2 2 0 0 1 2 2v14a2 2 0 0 1-2 2H42a2 2 0 0 1-2-2V25a2 2 0 0 1 2-2zM16 54h16a2 2 0 0 1 2 2v16a2 2 0 0 1-2 2H16a2 2 0 0 1-2-2V56a2 2 0 0 1 2-2zm26 1h71a2 2 0 0 1 2 2v14a2 2 0 0 1-2 2H42a2 2 0 0 1-2-2V57a2 2 0 0 1 2-2zM16 86h16a2 2 0 0 1 2 2v16a2 2 0 0 1-2 2H16a2 2 0 0 1-2-2V88a2 2 0 0 1 2-2zm26 1h71a2 2 0 0 1 2 2v14a2 2 0 0 1-2 2H42a2 2 0 0 1-2-2V89a2 2 0 0 1 2-2z"/></g></svg>