<svg width="128" height="128" xmlns="http://www.w3.org/2000/svg"><path d="M105.497 75.954a3 3 0 0 1-2.434 3.476L26.996 92.842a3 3 0 0 1-1.042-5.908l76.068-13.413a3 3 0 0 1 3.475 2.433zm1.193-3.386a2 2 0 0 1-3.38 0C95.77 60.654 92 52.465 92 48c0-7.18 5.82-13 13-13s13 5.82 13 13c0 4.465-3.77 12.654-11.31 24.568zM105 57.028a8.667 8.667 0 1 0 0-17.334 8.667 8.667 0 0 0 0 17.334zm-80.31 28.54a2 2 0 0 1-3.38 0C13.77 73.654 10 65.465 10 61c0-7.18 5.82-13 13-13s13 5.82 13 13c0 4.465-3.77 12.654-11.31 24.568zM23 70.028a8.667 8.667 0 1 0 0-17.334 8.667 8.667 0 0 0 0 17.334z" fill="#000" fill-rule="evenodd"/></svg>