<svg width="128" height="128" xmlns="http://www.w3.org/2000/svg"><path d="M14 19h100a5 5 0 0 1 5 5v80a5 5 0 0 1-5 5H14a5 5 0 0 1-5-5V24a5 5 0 0 1 5-5zm39 7a3 3 0 0 0 0 6h22a3 3 0 0 0 0-6H53zm12 27a3 3 0 0 0 0 6h42a3 3 0 0 0 0-6H65zm0 11a3 3 0 0 0 0 6h42a3 3 0 0 0 0-6H65zm0 11a3 3 0 0 0 0 6h22a3 3 0 0 0 0-6H65zm-39 6a8 8 0 0 0-8 8v3a5 5 0 0 0 5 5h26a5 5 0 0 0 5-5v-3a8 8 0 0 0-8-8H26zm9.5-3C42.404 78 48 72.404 48 65.5S42.404 53 35.5 53 23 58.596 23 65.5 28.596 78 35.5 78z" fill="#000" fill-rule="evenodd"/></svg>