<svg width="128" height="128" xmlns="http://www.w3.org/2000/svg"><g fill="none" fill-rule="evenodd"><path d="M57.652 64.198a14.24 14.24 0 0 0-.417-3.436l17.509-10.109c4.48 4.313 11.437 5.342 17.092 2.077 6.85-3.955 9.198-12.715 5.243-19.566-3.956-6.85-12.716-9.198-19.567-5.243-5.655 3.265-8.241 9.804-6.747 15.841L53.256 53.871a14.268 14.268 0 0 0-4.042-2.731 14.232 14.232 0 0 0-5.888-1.268 14.232 14.232 0 0 0-5.888 1.268 14.263 14.263 0 0 0-4.243 2.928 14.263 14.263 0 0 0-2.928 4.243A14.232 14.232 0 0 0 29 64.198a14.232 14.232 0 0 0 1.267 5.888 14.263 14.263 0 0 0 2.928 4.243 14.263 14.263 0 0 0 4.243 2.928 14.232 14.232 0 0 0 5.888 1.267c1.984.002 3.99-.409 5.888-1.267a14.268 14.268 0 0 0 4.042-2.731l17.51 10.109c-1.495 6.036 1.091 12.575 6.746 15.84 6.851 3.956 15.611 1.608 19.567-5.243 3.955-6.85 1.608-15.61-5.243-19.566-5.655-3.265-12.612-2.235-17.092 2.077l-17.51-10.109a14.24 14.24 0 0 0 .418-3.436z" fill="#000"/><rect stroke="#000" stroke-width="6" x="12" y="12" width="104" height="104" rx="5"/></g></svg>