<svg width="128" height="128" xmlns="http://www.w3.org/2000/svg"><path d="M64 119C33.624 119 9 94.376 9 64S33.624 9 64 9s55 24.624 55 55-24.624 55-55 55zM41.001 64c-.019.604.205 1.214.673 1.675l26.033 25.66a2.325 2.325 0 0 0 3.254 0 2.245 2.245 0 0 0 0-3.207L46.483 64l24.478-24.128a2.245 2.245 0 0 0 0-3.208 2.325 2.325 0 0 0-3.254 0L41.674 62.325A2.245 2.245 0 0 0 41.001 64zm15.365 0c-.019.604.205 1.214.673 1.675l26.033 25.66a2.325 2.325 0 0 0 3.254 0 2.245 2.245 0 0 0 0-3.207L61.848 64l24.478-24.128a2.245 2.245 0 0 0 0-3.208 2.325 2.325 0 0 0-3.254 0L57.039 62.325A2.245 2.245 0 0 0 56.366 64z" fill="#000" fill-rule="evenodd"/></svg>