<svg width="128" height="128" xmlns="http://www.w3.org/2000/svg"><g fill="none" fill-rule="evenodd"><path d="M32 29h64a8 8 0 0 1 8 8v55a8 8 0 0 1-8 8H32a8 8 0 0 1-8-8V37a8 8 0 0 1 8-8zm25.51 5l-6.45 8.6H28V46a1 1 0 0 0 1 1h70a1 1 0 0 0 1-1v-9a3 3 0 0 0-3-3H57.51zM29 34a1 1 0 0 0-1 1v4a1 1 0 0 0 1 1h21a1 1 0 0 0 1-1v-4a1 1 0 0 0-1-1H29z" fill="#000"/><circle stroke="#FFF" stroke-width="4" cx="64" cy="72" r="17"/><path d="M64 62c-5.523 0-10 4.477-10 10" stroke="#FFF" stroke-width="4" stroke-linecap="round"/></g></svg>