<svg width="128" height="128" xmlns="http://www.w3.org/2000/svg"><g fill="none" fill-rule="evenodd"><path d="M8.454 41.273l102.99 59.461C100.468 114.89 83.298 124 64 124 30.863 124 4 97.137 4 64a59.826 59.826 0 0 1 4.454-22.727zm7.99-13.862C27.414 13.173 44.636 4 64 4c33.137 0 60 26.863 60 60a59.822 59.822 0 0 1-4.524 22.897L16.444 27.41z" fill="#000"/><path d="M48.444 74h31.112C86.428 74 92 79.596 92 86.5v9.375A3.118 3.118 0 0 1 88.889 99H39.11A3.118 3.118 0 0 1 36 95.875V86.5C36 79.596 41.572 74 48.444 74z" fill="#FFF"/><circle fill="#FFF" cx="64" cy="50" r="20"/></g></svg>