<svg width="128" height="128" xmlns="http://www.w3.org/2000/svg"><path d="M47.607 34h66.217a5 5 0 0 1 5 5v50a5 5 0 0 1-5 5H47.585a5 5 0 0 1-3.14-1.11L11.702 66.452a3 3 0 0 1-.01-4.66l32.757-26.67A5 5 0 0 1 47.607 34zm41.65 30.5l12.51-12.382a4.14 4.14 0 0 0 0-5.897 4.242 4.242 0 0 0-5.957 0L83.301 58.604 71.19 46.614a4.242 4.242 0 0 0-5.956 0 4.14 4.14 0 0 0 0 5.897L77.345 64.5 65.234 76.49a4.14 4.14 0 0 0 0 5.896 4.242 4.242 0 0 0 5.956 0l12.111-11.99L95.81 82.78a4.242 4.242 0 0 0 5.956 0 4.14 4.14 0 0 0 0-5.897L89.258 64.5z" fill="#000" fill-rule="evenodd"/></svg>