<svg width="128" height="128" xmlns="http://www.w3.org/2000/svg"><path d="M64 119C33.624 119 9 94.376 9 64S33.624 9 64 9s55 24.624 55 55-24.624 55-55 55zm22.999-55a2.245 2.245 0 0 0-.673-1.675l-26.033-25.66a2.325 2.325 0 0 0-3.254 0 2.245 2.245 0 0 0 0 3.207L81.517 64 57.039 88.128a2.245 2.245 0 0 0 0 3.208 2.325 2.325 0 0 0 3.254 0l26.033-25.661A2.245 2.245 0 0 0 86.999 64zm-15.365 0a2.245 2.245 0 0 0-.673-1.675l-26.033-25.66a2.325 2.325 0 0 0-3.254 0 2.245 2.245 0 0 0 0 3.207L66.152 64 41.674 88.128a2.245 2.245 0 0 0 0 3.208 2.325 2.325 0 0 0 3.254 0l26.033-25.661A2.245 2.245 0 0 0 71.634 64z" fill="#000" fill-rule="evenodd"/></svg>