<svg width="128" height="128" xmlns="http://www.w3.org/2000/svg"><path d="M38 64V16a2 2 0 0 0-2-2h-8a2 2 0 0 0-2 2v48h-3a2 2 0 0 0-2 2v6a2 2 0 0 0 2 2h3v38a2 2 0 0 0 2 2h8a2 2 0 0 0 2-2V74h3a2 2 0 0 0 2-2v-6a2 2 0 0 0-2-2h-3zm32-28V16a2 2 0 0 0-2-2h-8a2 2 0 0 0-2 2v20h-3a2 2 0 0 0-2 2v6a2 2 0 0 0 2 2h3v66a2 2 0 0 0 2 2h8a2 2 0 0 0 2-2V46h3a2 2 0 0 0 2-2v-6a2 2 0 0 0-2-2h-3zm32 44V16a2 2 0 0 0-2-2h-8a2 2 0 0 0-2 2v64h-3a2 2 0 0 0-2 2v6a2 2 0 0 0 2 2h3v22a2 2 0 0 0 2 2h8a2 2 0 0 0 2-2V90h3a2 2 0 0 0 2-2v-6a2 2 0 0 0-2-2h-3z" fill="#000" fill-rule="evenodd"/></svg>