<svg width="128" height="128" xmlns="http://www.w3.org/2000/svg"><path d="M23 9h82a5 5 0 0 1 5 5v100a5 5 0 0 1-5 5H23a5 5 0 0 1-5-5V14a5 5 0 0 1 5-5zm2 7v25h78V16H25zm5 36a5 5 0 0 0-5 5v5a5 5 0 0 0 5 5h5a5 5 0 0 0 5-5v-5a5 5 0 0 0-5-5h-5zm21 0a5 5 0 0 0-5 5v5a5 5 0 0 0 5 5h5a5 5 0 0 0 5-5v-5a5 5 0 0 0-5-5h-5zm0 21a5 5 0 0 0-5 5v5a5 5 0 0 0 5 5h5a5 5 0 0 0 5-5v-5a5 5 0 0 0-5-5h-5zm0 21a5 5 0 0 0-5 5v5a5 5 0 0 0 5 5h5a5 5 0 0 0 5-5v-5a5 5 0 0 0-5-5h-5zm21 0a5 5 0 0 0-5 5v5a5 5 0 0 0 5 5h5a5 5 0 0 0 5-5v-5a5 5 0 0 0-5-5h-5zm0-21a5 5 0 0 0-5 5v5a5 5 0 0 0 5 5h5a5 5 0 0 0 5-5v-5a5 5 0 0 0-5-5h-5zm0-21a5 5 0 0 0-5 5v5a5 5 0 0 0 5 5h5a5 5 0 0 0 5-5v-5a5 5 0 0 0-5-5h-5zm21 0a5 5 0 0 0-5 5v5a5 5 0 0 0 5 5h5a5 5 0 0 0 5-5v-5a5 5 0 0 0-5-5h-5zm0 21a5 5 0 0 0-5 5v26a5 5 0 0 0 5 5h5a5 5 0 0 0 5-5V78a5 5 0 0 0-5-5h-5zm-63 0a5 5 0 0 0-5 5v5a5 5 0 0 0 5 5h5a5 5 0 0 0 5-5v-5a5 5 0 0 0-5-5h-5zm0 21a5 5 0 0 0-5 5v5a5 5 0 0 0 5 5h5a5 5 0 0 0 5-5v-5a5 5 0 0 0-5-5h-5z" fill="#000" fill-rule="evenodd"/></svg>