<svg width="128" height="128" xmlns="http://www.w3.org/2000/svg"><g fill="#000" fill-rule="evenodd"><path d="M96.6 63.5l6.736-6.667a2.23 2.23 0 0 0 0-3.175 2.284 2.284 0 0 0-3.208 0l-6.735 6.667-6.521-6.456a2.284 2.284 0 0 0-3.208 0 2.23 2.23 0 0 0 0 3.175l6.522 6.456-6.522 6.456a2.23 2.23 0 0 0 0 3.175 2.284 2.284 0 0 0 3.208 0l6.521-6.456 6.735 6.667a2.284 2.284 0 0 0 3.208 0 2.23 2.23 0 0 0 0-3.175L96.6 63.5zM49 50.103l20.486-23.725A2 2 0 0 1 73 27.686v72.628a2 2 0 0 1-3.514 1.308L49 77.897H29a4 4 0 0 1-4-4V54.103a4 4 0 0 1 4-4h20z"/></g></svg>