<svg width="128" height="128" xmlns="http://www.w3.org/2000/svg"><g stroke="#000" stroke-width="5" fill="none" fill-rule="evenodd"><path d="M49.51 122.5h18.98l-2.252-2.574a7.5 7.5 0 0 1-1.84-4.466l-2.584-40.886 2.27-.34a23.811 23.811 0 0 0 6.947-2.161l1.291-.632 1.196.798A13.424 13.424 0 0 0 81 74.5c7.073 0 12.934-5.46 13.461-12.47l.126-1.67 1.594-.52a13.506 13.506 0 0 0 .022-25.674l-1.812-.593.093-1.904c.01-.222.016-.445.016-.669 0-7.456-6.044-13.5-13.5-13.5-1.609 0-3.175.28-4.65.821l-2.589.95-.692-2.67a13.506 13.506 0 0 0-26.214.309l-.685 2.927-2.754-1.207A13.445 13.445 0 0 0 38 17.5c-7.456 0-13.5 6.044-13.5 13.5 0 .08 0 .158.002.237l.036 2.107-2.07.393C16.148 34.935 11.5 40.487 11.5 47c0 6.542 4.688 12.11 11.044 13.278l1.835.336.2 1.854C25.314 69.282 31.09 74.5 38 74.5c3.006 0 5.857-.982 8.193-2.77l1.298-.992 1.43.79a23.831 23.831 0 0 0 5.315 2.147l1.973.532-2.607 41.253a7.5 7.5 0 0 1-1.84 4.466l-2.253 2.574z"/><path d="M93.849 66.287l-.065.16-.06.146c-.395.973-.706 1.546-1.336 2.157-.247.24-.421.468-.811 1.047-.273.405-.38.56-.555.795-.823 1.11-1.77 1.96-3.161 2.72-1.223.667-2.799 1.046-5.53 1.499-.382.063-1.785.288-2.093.339-.79.13-1.344.234-1.77.334.382.582.598 1.274.598 2.128v1.996l-1.947.442c-2.686.61-4.619 2.944-4.619 5.628a5.572 5.572 0 0 0 4.563 5.474l1.835.336.2 1.854c.304 2.807 2.691 4.96 5.548 4.96a5.554 5.554 0 0 0 3.388-1.143l1.296-.99 1.428.787c.76.42 1.568.746 2.41.972l1.974.531-1.38 21.81a5.017 5.017 0 0 1-.686 2.231h4.353a5.017 5.017 0 0 1-.685-2.23l-1.377-21.75 2.27-.339c1.1-.164 2.16-.495 3.15-.978l1.289-.63 1.194.796a5.553 5.553 0 0 0 3.094.933c2.924 0 5.347-2.253 5.564-5.14l.127-1.672 1.594-.518a5.57 5.57 0 0 0 3.851-5.294 5.57 5.57 0 0 0-3.842-5.292l-1.813-.592.093-1.906c.004-.092.006-.184.006-.276 0-3.073-2.497-5.567-5.58-5.567-.667 0-1.315.116-1.924.34l-2.587.947-.692-2.667a5.581 5.581 0 0 0-5.403-4.165c-.227 0-.373-.017-.668-.061.004 0-.367-.057-.48-.073a8.002 8.002 0 0 0-.761-.08z"/></g></svg>