<svg width="128" height="128" xmlns="http://www.w3.org/2000/svg" xmlns:xlink="http://www.w3.org/1999/xlink"><defs><circle id="a" cx="64" cy="48" r="36"/></defs><g fill="none" fill-rule="evenodd"><path d="M29 47a7 7 0 0 0-7 7v52a7 7 0 0 0 7 7h70a7 7 0 0 0 7-7V54a7 7 0 0 0-7-7H29z" stroke="#000" stroke-width="6"/><use fill="#FFF" xlink:href="#a"/><circle stroke="#000" stroke-width="6" cx="64" cy="48" r="33"/><path d="M68.393 54.98l10.901-18.882a3 3 0 1 0-5.196-3L63.197 51.98a6 6 0 1 0 5.196 3z" fill="#000"/></g></svg>