<svg width="128" height="128" xmlns="http://www.w3.org/2000/svg"><path d="M15 119h-1a5 5 0 0 1-5-5V14a5 5 0 0 1 5-5h1v10h12V9h74v10h12V9h1a5 5 0 0 1 5 5v100a5 5 0 0 1-5 5h-1v-10h-12v10H27v-10H15v10zM34 18a2 2 0 0 0-2 2v38a2 2 0 0 0 2 2h60a2 2 0 0 0 2-2V20a2 2 0 0 0-2-2H34zm0 50a2 2 0 0 0-2 2v38a2 2 0 0 0 2 2h60a2 2 0 0 0 2-2V70a2 2 0 0 0-2-2H34zm67-44v12h12V24h-12zm0 17v12h12V41h-12zm0 17v12h12V58h-12zm0 17v12h12V75h-12zm0 17v12h12V92h-12zM15 24v12h12V24H15zm0 17v12h12V41H15zm0 17v12h12V58H15zm0 17v12h12V75H15zm0 17v12h12V92H15z" fill="#000" fill-rule="evenodd"/></svg>