<svg width="128" height="128" xmlns="http://www.w3.org/2000/svg"><g fill="none" fill-rule="evenodd"><path d="M96 74h20a8 8 0 0 1 8 8v3a5 5 0 0 1-5 5H93a5 5 0 0 1-5-5v-3a8 8 0 0 1 8-8z" fill="#000"/><circle fill="#000" cx="106" cy="59" r="13"/><path d="M13 74h20a8 8 0 0 1 8 8v3a5 5 0 0 1-5 5H10a5 5 0 0 1-5-5v-3a8 8 0 0 1 8-8z" fill="#000"/><circle fill="#000" cx="23" cy="59" r="13"/><path d="M42.5 73h43c9.665 0 17.5 7.835 17.5 17.5V103a5 5 0 0 1-5 5H30a5 5 0 0 1-5-5V90.5C25 80.835 32.835 73 42.5 73z" fill="#FFF"/><path d="M44 76h40c8.837 0 16 7.163 16 16v11a5 5 0 0 1-5 5H33a5 5 0 0 1-5-5V92c0-8.837 7.163-16 16-16z" fill="#000"/><circle fill="#000" cx="64.5" cy="46.5" r="25.5"/></g></svg>