<svg width="128" height="128" xmlns="http://www.w3.org/2000/svg"><g fill="none" fill-rule="evenodd"><rect fill="#000" x="9" y="9" width="110" height="110" rx="5"/><path d="M55.963 29h15.41a2.963 2.963 0 0 1 2.963 2.963v49.39c0 .645-.176 1.278-.507 1.83l-9.145 15.241a1.185 1.185 0 0 1-2.033 0l-9.144-15.24a3.556 3.556 0 0 1-.507-1.83v-49.39A2.963 2.963 0 0 1 55.963 29zm-.592 18.965v30.818h2.37V47.965h-2.37zM53 40.853v3.556h21.336v-3.556H53zm3.997 42.13a.52.52 0 0 0-.782.662l6.94 12.028a.593.593 0 0 0 1.026 0l6.922-11.998a.54.54 0 0 0-.809-.691l-1.883 1.523a.593.593 0 0 1-.754-.006l-3.612-3.031a.593.593 0 0 0-.757-.004l-3.696 3.038a.593.593 0 0 1-.753 0l-1.842-1.52z" fill="#FFF"/></g></svg>