<svg width="128" height="128" xmlns="http://www.w3.org/2000/svg"><path d="M55.51 122.5h18.98l-2.252-2.574a7.5 7.5 0 0 1-1.84-4.466l-2.584-40.886 2.27-.34a23.811 23.811 0 0 0 6.947-2.161l1.291-.632 1.196.798A13.424 13.424 0 0 0 87 74.5c7.073 0 12.934-5.46 13.461-12.47l.126-1.67 1.594-.52a13.506 13.506 0 0 0 .022-25.674l-1.812-.593.093-1.904c.01-.222.016-.445.016-.669 0-7.456-6.044-13.5-13.5-13.5-1.609 0-3.175.28-4.65.821l-2.589.95-.692-2.67a13.506 13.506 0 0 0-26.214.309l-.685 2.927-2.754-1.207A13.445 13.445 0 0 0 44 17.5c-7.456 0-13.5 6.044-13.5 13.5 0 .08 0 .158.002.237l.036 2.107-2.07.393C22.148 34.935 17.5 40.487 17.5 47c0 6.542 4.688 12.11 11.044 13.278l1.835.336.2 1.854C31.314 69.282 37.09 74.5 44 74.5c3.006 0 5.857-.982 8.193-2.77l1.298-.992 1.43.79a23.831 23.831 0 0 0 5.315 2.147l1.973.532-2.607 41.253a7.5 7.5 0 0 1-1.84 4.466l-2.253 2.574z" stroke="#000" stroke-width="5" fill="none" fill-rule="evenodd"/></svg>