<svg width="128" height="128" xmlns="http://www.w3.org/2000/svg"><g fill="none" fill-rule="evenodd"><rect stroke="#000" stroke-width="5" x="11.5" y="11.5" width="105" height="105" rx="5"/><path d="M25.604 30h12.832c.885 0 1.604.716 1.604 1.6v12.8c0 .884-.719 1.6-1.604 1.6H25.604A1.602 1.602 0 0 1 24 44.4V31.6c0-.884.718-1.6 1.604-1.6zm20.851.8h56.941c.886 0 1.604.716 1.604 1.6v11.2c0 .884-.718 1.6-1.604 1.6h-56.94a1.602 1.602 0 0 1-1.605-1.6V32.4c0-.884.719-1.6 1.604-1.6zM25.604 56h12.832c.885 0 1.604.716 1.604 1.6v12.8c0 .884-.719 1.6-1.604 1.6H25.604A1.602 1.602 0 0 1 24 70.4V57.6c0-.884.718-1.6 1.604-1.6zm20.851.8h56.941c.886 0 1.604.716 1.604 1.6v11.2c0 .884-.718 1.6-1.604 1.6h-56.94a1.602 1.602 0 0 1-1.605-1.6V58.4c0-.884.719-1.6 1.604-1.6zM25.604 82h12.832c.885 0 1.604.716 1.604 1.6v12.8c0 .884-.719 1.6-1.604 1.6H25.604A1.602 1.602 0 0 1 24 96.4V83.6c0-.884.718-1.6 1.604-1.6zm20.851.8h56.941c.886 0 1.604.716 1.604 1.6v11.2c0 .884-.718 1.6-1.604 1.6h-56.94a1.602 1.602 0 0 1-1.605-1.6V84.4c0-.884.719-1.6 1.604-1.6z" fill="#000"/></g></svg>