<svg width="128" height="128" xmlns="http://www.w3.org/2000/svg"><path d="M31 102.995C17.148 102.73 6 91.416 6 77.5c0-12.896 9.573-23.557 22.001-25.262C28.141 37.723 39.951 26 54.5 26c10.289 0 19.208 5.863 23.598 14.431A15.932 15.932 0 0 1 88 37c8.837 0 16 7.163 16 16a15.98 15.98 0 0 1-.848 5.155C114.328 59.467 123 68.97 123 80.5c0 12.426-10.074 22.5-22.5 22.5l-69.5-.005zM55.603 86.63a1.271 1.271 0 0 0 1.794 0l17.232-17.18a1.263 1.263 0 0 0-.897-2.159H39.268a1.27 1.27 0 0 0-.897.37 1.262 1.262 0 0 0 0 1.789l17.232 17.18zm5.97-19.339V44.529A2.533 2.533 0 0 0 59.037 42h-5.074a2.533 2.533 0 0 0-2.536 2.53V67.29h10.146z" fill="#000" fill-rule="evenodd"/></svg>