<svg width="128" height="128" xmlns="http://www.w3.org/2000/svg"><g fill="none" fill-rule="evenodd"><path d="M108.801 59.598a3 3 0 0 0-4.098-1.098L64.151 81.913 23.598 58.5a3 3 0 0 0-4.098 1.098 2.99 2.99 0 0 0 1.104 4.089L62.66 87.764a3 3 0 0 0 2.981 0l42.057-24.077a2.99 2.99 0 0 0 1.103-4.089z" fill="#000"/><path d="M65.4 12.973a2.5 2.5 0 0 0-2.807 0L11.596 47.58a2.5 2.5 0 0 0-1.096 2.068V114a2.5 2.5 0 0 0 2.5 2.5h102a2.5 2.5 0 0 0 2.5-2.5V49.642a2.5 2.5 0 0 0-1.097-2.07L65.4 12.974z" stroke="#000" stroke-width="5"/></g></svg>