<svg width="128" height="128" xmlns="http://www.w3.org/2000/svg" xmlns:xlink="http://www.w3.org/1999/xlink"><defs><path d="M18.532 50H117.4a8 8 0 0 1 7.784 9.846l-9.724 41a8 8 0 0 1-7.784 6.154h-94.55a8 8 0 0 1-7.932-9.046l5.408-41A8 8 0 0 1 18.532 50z" id="a"/></defs><g fill="none" fill-rule="evenodd"><path d="M47.82 24H13c-2.653 0-5 2.728-5 6.297v67.406c0 3.57 2.347 6.297 5 6.297h94c2.653 0 5-2.728 5-6.297V42.136a5 5 0 0 0-5-5H58.58L47.82 24z" stroke="#000" stroke-width="6"/><use fill="#FFF" xlink:href="#a"/><path stroke="#000" stroke-width="5" d="M18.532 52.5a5.5 5.5 0 0 0-5.452 4.78l-5.408 41a5.5 5.5 0 0 0 5.453 6.22h94.55a5.5 5.5 0 0 0 5.352-4.23l9.724-41a5.5 5.5 0 0 0-5.352-6.77H18.532z"/></g></svg>