<svg width="128" height="128" xmlns="http://www.w3.org/2000/svg"><g fill="none" fill-rule="evenodd"><path d="M85.5 16.5h-5v9h-33v-9h-5v9H29a7.5 7.5 0 0 0-7.5 7.5v4.5h85V33a7.5 7.5 0 0 0-7.5-7.5H85.5v-9zM106.5 48.5h-85V103a7.5 7.5 0 0 0 7.5 7.5h70a7.5 7.5 0 0 0 7.5-7.5V48.5z" stroke="#000" stroke-width="5"/><path d="M66.74 77.26V64.936a2.935 2.935 0 1 0-5.87 0V77.26H48.935a2.935 2.935 0 1 0 0 5.87H60.87v11.934a2.935 2.935 0 1 0 5.87 0V83.13h12.325a2.935 2.935 0 1 0 0-5.87H66.74z" fill="#000"/></g></svg>