<svg width="128" height="128" xmlns="http://www.w3.org/2000/svg"><g fill="#000" fill-rule="evenodd"><path d="M115 78H81a3 3 0 0 0-3 3v34a3 3 0 0 0 3 3h4a3 3 0 0 0 3-3V88h27a3 3 0 0 0 3-3v-4a3 3 0 0 0-3-3zM50 115V81a3 3 0 0 0-3-3H13a3 3 0 0 0-3 3v4a3 3 0 0 0 3 3h27v27a3 3 0 0 0 3 3h4a3 3 0 0 0 3-3zM13 50h34a3 3 0 0 0 3-3V13a3 3 0 0 0-3-3h-4a3 3 0 0 0-3 3v27H13a3 3 0 0 0-3 3v4a3 3 0 0 0 3 3zM78 13v34a3 3 0 0 0 3 3h34a3 3 0 0 0 3-3v-4a3 3 0 0 0-3-3H88V13a3 3 0 0 0-3-3h-4a3 3 0 0 0-3 3z"/></g></svg>