<svg width="128" height="128" xmlns="http://www.w3.org/2000/svg"><g stroke="#000" fill="none" fill-rule="evenodd"><path d="M21.196 50.954a3.6 3.6 0 0 1-2.545 6.146H12.5a2 2 0 0 0-2 2v9.8a2 2 0 0 0 2 2h5.928a3.6 3.6 0 0 1 2.545 6.146l-4.237 4.237a2 2 0 0 0 0 2.829l6.93 6.93a2 2 0 0 0 2.828 0l4.46-4.461a3.6 3.6 0 0 1 6.146 2.545V95.5a2 2 0 0 0 2 2h9.8a2 2 0 0 0 2-2v-6.15a3.6 3.6 0 0 1 6.146-2.546l4.237 4.237a2 2 0 0 0 2.829 0l6.93-6.93a2 2 0 0 0 0-2.828l-4.238-4.237a3.6 3.6 0 0 1 2.545-6.146H75.5a2 2 0 0 0 2-2v-9.8a2 2 0 0 0-2-2h-6.374a3.6 3.6 0 0 1-2.545-6.146l4.46-4.46a2 2 0 0 0 0-2.829l-6.93-6.93a2 2 0 0 0-2.828 0l-4.237 4.238a3.6 3.6 0 0 1-6.146-2.545V32.5a2 2 0 0 0-2-2h-9.8a2 2 0 0 0-2 2v6.15a3.6 3.6 0 0 1-6.146 2.546l-4.46-4.46a2 2 0 0 0-2.829 0l-6.93 6.93a2 2 0 0 0 0 2.828l4.461 4.46z" stroke-width="3"/><path d="M44 79.5c8.56 0 15.5-6.94 15.5-15.5 0-8.56-6.94-15.5-15.5-15.5-8.56 0-15.5 6.94-15.5 15.5 0 8.56 6.94 15.5 15.5 15.5z" stroke-width="3"/><path d="M85.434 34.13a2.08 2.08 0 0 1-1.47 3.55H80.8a.8.8 0 0 0-.8.8v5.04a.8.8 0 0 0 .8.8h3.048a2.08 2.08 0 0 1 1.471 3.55l-2.18 2.18a.8.8 0 0 0 0 1.132l3.565 3.563a.8.8 0 0 0 1.131 0l2.294-2.294a2.08 2.08 0 0 1 3.551 1.471V57.2a.8.8 0 0 0 .8.8h5.04a.8.8 0 0 0 .8-.8v-3.163a2.08 2.08 0 0 1 3.55-1.471l2.18 2.18a.8.8 0 0 0 1.132 0l3.563-3.564a.8.8 0 0 0 0-1.132l-2.179-2.18a2.08 2.08 0 0 1 1.47-3.55h3.164a.8.8 0 0 0 .8-.8v-5.04a.8.8 0 0 0-.8-.8h-3.278a2.08 2.08 0 0 1-1.47-3.55l2.293-2.295a.8.8 0 0 0 0-1.131l-3.563-3.564a.8.8 0 0 0-1.132 0l-2.18 2.18a2.08 2.08 0 0 1-3.55-1.472V24.8a.8.8 0 0 0-.8-.8h-5.04a.8.8 0 0 0-.8.8v3.163a2.08 2.08 0 0 1-3.55 1.471l-2.295-2.294a.8.8 0 0 0-1.131 0l-3.564 3.564a.8.8 0 0 0 0 1.131l2.294 2.294z" stroke-width="2"/><path d="M97.5 49a7.5 7.5 0 1 0 0-15 7.5 7.5 0 0 0 0 15zM85.434 80.13a2.08 2.08 0 0 1-1.47 3.55H80.8a.8.8 0 0 0-.8.8v5.04a.8.8 0 0 0 .8.8h3.048a2.08 2.08 0 0 1 1.471 3.55l-2.18 2.18a.8.8 0 0 0 0 1.132l3.565 3.563a.8.8 0 0 0 1.131 0l2.294-2.294a2.08 2.08 0 0 1 3.551 1.471v3.278a.8.8 0 0 0 .8.8h5.04a.8.8 0 0 0 .8-.8v-3.163a2.08 2.08 0 0 1 3.55-1.471l2.18 2.18a.8.8 0 0 0 1.132 0l3.563-3.564a.8.8 0 0 0 0-1.132l-2.179-2.18a2.08 2.08 0 0 1 1.47-3.55h3.164a.8.8 0 0 0 .8-.8v-5.04a.8.8 0 0 0-.8-.8h-3.278a2.08 2.08 0 0 1-1.47-3.55l2.293-2.295a.8.8 0 0 0 0-1.131l-3.563-3.564a.8.8 0 0 0-1.132 0l-2.18 2.18a2.08 2.08 0 0 1-3.55-1.472V70.8a.8.8 0 0 0-.8-.8h-5.04a.8.8 0 0 0-.8.8v3.163a2.08 2.08 0 0 1-3.55 1.471l-2.295-2.294a.8.8 0 0 0-1.131 0l-3.564 3.564a.8.8 0 0 0 0 1.131l2.294 2.294z" stroke-width="2"/><path d="M97.5 95a7.5 7.5 0 1 0 0-15 7.5 7.5 0 0 0 0 15z" stroke-width="2"/></g></svg>