<svg width="128" height="128" xmlns="http://www.w3.org/2000/svg"><path d="M95.633 39.994l4.58-4.58a2 2 0 0 1 2.829 0l4.242 4.243a2 2 0 0 1 0 2.828l-5.33 5.33A44.79 44.79 0 0 1 109 72c0 24.853-20.147 45-45 45S19 96.853 19 72c0-22.818 16.984-41.67 39-44.603V22h-8a2 2 0 0 1-2-2v-6a2 2 0 0 1 2-2h28a2 2 0 0 1 2 2v6a2 2 0 0 1-2 2h-8v5.397c9.935 1.323 18.846 5.889 25.633 12.597h0zM61 40a3 3 0 0 0-3 3v30a3 3 0 0 0 3 3h6a3 3 0 0 0 3-3V43a3 3 0 0 0-3-3h-6z" stroke="#000" stroke-width="5" fill="none" fill-rule="evenodd"/></svg>