<svg width="120" height="120" xmlns="http://www.w3.org/2000/svg"><path d="M60 120C26.863 120 0 93.137 0 60S26.863 0 60 0s60 26.863 60 60-26.863 60-60 60zm8.268-60l17.96-17.78a5.944 5.944 0 0 0 0-8.467c-2.361-2.337-6.19-2.337-8.552 0l-17.961 17.78-17.39-17.215c-2.363-2.338-6.192-2.338-8.554 0a5.944 5.944 0 0 0 0 8.467L51.162 60l-17.39 17.215a5.944 5.944 0 0 0 0 8.467c2.361 2.338 6.19 2.338 8.552 0l17.39-17.215 17.962 17.78c2.362 2.337 6.19 2.337 8.553 0a5.944 5.944 0 0 0 0-8.467L68.268 60z" fill="#000" fill-rule="evenodd"/></svg>