<svg width="128" height="128" xmlns="http://www.w3.org/2000/svg" xmlns:xlink="http://www.w3.org/1999/xlink"><defs><path d="M65 54h17.183c.482 0 .944-.162 1.285-.451.71-.601.71-1.576 0-2.178l-24.683-20.92c-.71-.601-1.86-.601-2.57 0l-24.683 20.92c-.34.29-.532.68-.532 1.09 0 .85.813 1.539 1.817 1.539H50v26c0 1.657 1.679 3 3.75 3h7.5c2.071 0 3.75-1.343 3.75-3V54z" id="a"/></defs><g fill="none" fill-rule="evenodd"><path d="M24 79h80a5 5 0 0 1 5 5v10a5 5 0 0 1-5 5H24a5 5 0 0 1-5-5V84a5 5 0 0 1 5-5zm71 15a5 5 0 1 0 0-10 5 5 0 0 0 0 10zm-16 0a5 5 0 1 0 0-10 5 5 0 0 0 0 10z" fill="#000"/><g transform="rotate(180 57.5 56.5)"><use fill="#000" xlink:href="#a"/><path stroke="#FFF" stroke-width="5" d="M67.5 56.5V80c0 3.176-2.905 5.5-6.25 5.5h-7.5c-3.345 0-6.25-2.324-6.25-5.5V56.5H32.817c-2.301 0-4.317-1.709-4.317-4.04 0-1.163.528-2.244 1.416-2.996l24.683-20.92c1.642-1.392 4.16-1.392 5.802 0l24.683 20.92c1.888 1.6 1.888 4.392 0 5.992a4.491 4.491 0 0 1-2.9 1.044H67.5z"/></g></g></svg>