<svg width="128" height="128" xmlns="http://www.w3.org/2000/svg"><path d="M62.625 105.675l-10.755 10.18a2 2 0 0 1-3.292-.882l-4.225-14.194a2 2 0 0 0-2.381-1.375l-14.405 3.438a2 2 0 0 1-2.41-2.41l3.439-14.404a2 2 0 0 0-1.375-2.381l-14.194-4.225a2 2 0 0 1-.882-3.292l10.18-10.755a2 2 0 0 0 0-2.75L12.145 51.87a2 2 0 0 1 .882-3.292l14.194-4.225a2 2 0 0 0 1.375-2.381l-3.438-14.405a2 2 0 0 1 2.41-2.41l14.404 3.439a2 2 0 0 0 2.381-1.375l4.225-14.194a2 2 0 0 1 3.292-.882l10.755 10.18a2 2 0 0 0 2.75 0l10.755-10.18a2 2 0 0 1 3.292.882l4.225 14.194a2 2 0 0 0 2.381 1.375l14.405-3.438a2 2 0 0 1 2.41 2.41l-3.439 14.404a2 2 0 0 0 1.375 2.381l14.194 4.225a2 2 0 0 1 .882 3.292l-10.18 10.755a2 2 0 0 0 0 2.75l10.18 10.755a2 2 0 0 1-.882 3.292l-14.194 4.225a2 2 0 0 0-1.375 2.381l3.438 14.405a2 2 0 0 1-2.41 2.41l-14.404-3.439a2 2 0 0 0-2.381 1.375l-4.225 14.194a2 2 0 0 1-3.292.882l-10.755-10.18a2 2 0 0 0-2.75 0z" fill="#000" fill-rule="evenodd"/></svg>