<svg width="128" height="128" xmlns="http://www.w3.org/2000/svg"><g fill="none" fill-rule="evenodd"><path d="M83.338 41.619l-4.243-4.243a2 2 0 0 0-2.828 0l-2.948 2.948c-16.57-10.195-38.555-8.114-52.913 6.245-16.793 16.792-16.793 44.018 0 60.81 16.792 16.793 44.018 16.793 60.81 0 14.105-14.103 16.363-35.568 6.775-52.028l3.125-3.126a2 2 0 0 0 0-2.828l-4.242-4.243 9.192-9.192a2 2 0 0 0 0-2.828l-.707-.708a2 2 0 0 0-2.829 0l-9.192 9.193z" fill="#000"/><rect fill="#000" transform="rotate(45 103.49 25.002)" x="100.991" y="19.002" width="5" height="12" rx="2.5"/><rect fill="#000" x="92.152" y="15.835" width="5" height="12" rx="2.5"/><rect fill="#000" transform="rotate(90 106.673 33.855)" x="104.173" y="27.855" width="5" height="12" rx="2.5"/><rect fill="#000" transform="rotate(45 102.784 41.972)" x="96.784" y="39.472" width="12" height="5" rx="2.5"/><rect fill="#000" transform="rotate(45 86.52 25.709)" x="80.52" y="23.209" width="12" height="5" rx="2.5"/><path d="M52.337 43.145c-7.36-.558-18.193 2.413-25.06 9.28" stroke="#FFF" stroke-width="5" stroke-linecap="round"/></g></svg>