<svg width="128" height="128" xmlns="http://www.w3.org/2000/svg"><g fill="#000" fill-rule="evenodd"><path d="M47 10H13a3 3 0 0 0-3 3v34a3 3 0 0 0 3 3h4a3 3 0 0 0 3-3V20h27a3 3 0 0 0 3-3v-4a3 3 0 0 0-3-3zM10 81v34a3 3 0 0 0 3 3h34a3 3 0 0 0 3-3v-4a3 3 0 0 0-3-3H20V81a3 3 0 0 0-3-3h-4a3 3 0 0 0-3 3zM81 118h34a3 3 0 0 0 3-3V81a3 3 0 0 0-3-3h-4a3 3 0 0 0-3 3v27H81a3 3 0 0 0-3 3v4a3 3 0 0 0 3 3zM118 47V13a3 3 0 0 0-3-3H81a3 3 0 0 0-3 3v4a3 3 0 0 0 3 3h27v27a3 3 0 0 0 3 3h4a3 3 0 0 0 3-3z"/></g></svg>