<svg width="128" height="128" xmlns="http://www.w3.org/2000/svg"><g fill="#000" fill-rule="evenodd"><path d="M99 23c5.523 0 10 4.477 10 10v5a2 2 0 0 1-2 2H21a2 2 0 0 1-2-2v-5c0-5.523 4.477-10 10-10h11v-7a2 2 0 0 1 2-2h6a2 2 0 0 1 2 2v7h28v-7a2 2 0 0 1 2-2h6a2 2 0 0 1 2 2v7h11zM109 103c0 5.523-4.477 10-10 10H29c-5.523 0-10-4.477-10-10V48a2 2 0 0 1 2-2h86a2 2 0 0 1 2 2v55zM56.575 88.356L46.12 77.899a3.584 3.584 0 1 0-5.07 5.07L53.724 95.64a3.577 3.577 0 0 0 2.88 1.033 3.577 3.577 0 0 0 2.83-1.037L86.95 68.119a3.584 3.584 0 1 0-5.069-5.07L56.575 88.357z"/></g></svg>