<svg width="128" height="128" xmlns="http://www.w3.org/2000/svg"><g fill="none" fill-rule="evenodd"><path d="M85.5 16.5h-5v9h-33v-9h-5v9H29a7.5 7.5 0 0 0-7.5 7.5v4.5h85V33a7.5 7.5 0 0 0-7.5-7.5H85.5v-9zM106.5 48.5h-85V103a7.5 7.5 0 0 0 7.5 7.5h70a7.5 7.5 0 0 0 7.5-7.5V48.5z" stroke="#000" stroke-width="5"/><path d="M69.315 79.183l11.546-11.546a3.888 3.888 0 0 0-5.498-5.498L63.817 73.685l-11.18-11.18a3.888 3.888 0 0 0-5.498 5.499l11.18 11.18-11.18 11.179a3.888 3.888 0 0 0 5.498 5.498l11.18-11.18 11.546 11.547a3.888 3.888 0 0 0 5.498-5.498L69.315 79.183z" fill="#000"/></g></svg>