<svg width="128" height="128" xmlns="http://www.w3.org/2000/svg" xmlns:xlink="http://www.w3.org/1999/xlink"><defs><path d="M99 36v70a4 4 0 0 1-4 4H33a4 4 0 0 1-4-4V36h-3a3 3 0 0 1 0-6h76a3 3 0 0 1 0 6h-3z" id="a"/></defs><g fill="none" fill-rule="evenodd"><use fill="#000" xlink:href="#a"/><path stroke="#000" stroke-width="6" d="M96 106V33h6-76 6v73a1 1 0 0 0 1 1h62a1 1 0 0 0 1-1z"/><path d="M47 30h0c0-6.075 4.925-11 11-11h12c6.075 0 11 4.925 11 11h0" stroke="#000" stroke-width="6" fill="#000"/><rect fill="#FFF" x="50" y="46" width="8" height="48" rx="2"/><rect fill="#FFF" x="70" y="46" width="8" height="48" rx="2"/></g></svg>