<svg width="128" height="128" xmlns="http://www.w3.org/2000/svg"><path d="M40 14h48a6 6 0 0 1 6 6v88a6 6 0 0 1-6 6H40a6 6 0 0 1-6-6V20a6 6 0 0 1 6-6zm42 16a4 4 0 1 0 0-8 4 4 0 0 0 0 8zm24 1a1 1 0 0 0 1 1h2a1 1 0 0 1 1 1v2a1 1 0 0 1-1 1h-2a1 1 0 0 0-1 1v1a1 1 0 0 1-1 1h-9V29h9a1 1 0 0 1 1 1v1zm0 20a1 1 0 0 0 1 1h2a1 1 0 0 1 1 1v2a1 1 0 0 1-1 1h-2a1 1 0 0 0-1 1v1a1 1 0 0 1-1 1h-9V49h9a1 1 0 0 1 1 1v1zm0 20a1 1 0 0 0 1 1h2a1 1 0 0 1 1 1v2a1 1 0 0 1-1 1h-2a1 1 0 0 0-1 1v1a1 1 0 0 1-1 1h-9V69h9a1 1 0 0 1 1 1v1zm0 20a1 1 0 0 0 1 1h2a1 1 0 0 1 1 1v2a1 1 0 0 1-1 1h-2a1 1 0 0 0-1 1v1a1 1 0 0 1-1 1h-9V89h9a1 1 0 0 1 1 1v1zM22 31v-1a1 1 0 0 1 1-1h9v10h-9a1 1 0 0 1-1-1v-1a1 1 0 0 0-1-1h-2a1 1 0 0 1-1-1v-2a1 1 0 0 1 1-1h2a1 1 0 0 0 1-1zm0 20v-1a1 1 0 0 1 1-1h9v10h-9a1 1 0 0 1-1-1v-1a1 1 0 0 0-1-1h-2a1 1 0 0 1-1-1v-2a1 1 0 0 1 1-1h2a1 1 0 0 0 1-1zm0 20v-1a1 1 0 0 1 1-1h9v10h-9a1 1 0 0 1-1-1v-1a1 1 0 0 0-1-1h-2a1 1 0 0 1-1-1v-2a1 1 0 0 1 1-1h2a1 1 0 0 0 1-1zm0 20v-1a1 1 0 0 1 1-1h9v10h-9a1 1 0 0 1-1-1v-1a1 1 0 0 0-1-1h-2a1 1 0 0 1-1-1v-2a1 1 0 0 1 1-1h2a1 1 0 0 0 1-1z" fill="#000" fill-rule="evenodd"/></svg>