<svg width="128" height="128" xmlns="http://www.w3.org/2000/svg"><path d="M60.441 77.668l-5.507-39.785c-.352-2.696-.528-4.668-.528-5.918 0-5.977 3.067-8.965 9.2-8.965 6.25 0 9.374 2.676 9.374 8.027 0 1.68-.175 3.828-.527 6.446l-5.508 40.195h-6.504zM53 95.363c0-2.89 1.035-5.38 3.105-7.47 2.07-2.09 4.57-3.135 7.5-3.135 2.93 0 5.43 1.045 7.5 3.135 2.07 2.09 3.106 4.58 3.106 7.47 0 2.93-1.045 5.43-3.135 7.5-2.09 2.07-4.58 3.106-7.47 3.106-2.891 0-5.381-1.035-7.471-3.106-2.09-2.07-3.135-4.57-3.135-7.5z" fill="#000" fill-rule="evenodd"/></svg>