<svg width="128" height="128" xmlns="http://www.w3.org/2000/svg" xmlns:xlink="http://www.w3.org/1999/xlink"><defs><path d="M65 55h17.183c.482 0 .944-.162 1.285-.451.71-.601.71-1.576 0-2.178l-24.683-20.92c-.71-.601-1.86-.601-2.57 0l-24.683 20.92c-.34.29-.532.68-.532 1.09 0 .85.813 1.539 1.817 1.539H50v26c0 1.657 1.679 3 3.75 3h7.5c2.071 0 3.75-1.343 3.75-3V55z" id="a"/></defs><g fill="none" fill-rule="evenodd"><path d="M24 78h80a5 5 0 0 1 5 5v10a5 5 0 0 1-5 5H24a5 5 0 0 1-5-5V83a5 5 0 0 1 5-5zm71 15a5 5 0 1 0 0-10 5 5 0 0 0 0 10zm-16 0a5 5 0 1 0 0-10 5 5 0 0 0 0 10z" fill="#000"/><use fill="#000" xlink:href="#a"/><path stroke="#FFF" stroke-width="4" d="M67 57v24c0 2.872-2.66 5-5.75 5h-7.5C50.66 86 48 83.872 48 81V57H32.817C30.775 57 29 55.495 29 53.46c0-1.012.46-1.955 1.239-2.614l24.683-20.92c1.456-1.234 3.7-1.234 5.156 0l24.683 20.92c1.652 1.4 1.652 3.829 0 5.229a3.992 3.992 0 0 1-2.578.925H67z"/></g></svg>