<svg width="128" height="128" xmlns="http://www.w3.org/2000/svg"><g fill="none" fill-rule="evenodd"><path d="M80.5 13.324a3.5 3.5 0 0 0-4.95 0L13.324 75.55a3.5 3.5 0 0 0 0 4.95l33.941 33.94a3.5 3.5 0 0 0 4.95 0l62.225-62.225a3.5 3.5 0 0 0 0-4.95L80.5 13.325zM114.225 71.8a3.502 3.502 0 0 1 .593-2.942l-3.56-3.56-3.536 3.535 3.56 3.56a3.502 3.502 0 0 1 2.943-.593zm1.629.922l1.414 1.414a1.496 1.496 0 0 0-2.122 0l1.415-1.414a1.498 1.498 0 0 0 0 2.121l-1.415-1.414a3.484 3.484 0 0 1-.921-1.629 3.484 3.484 0 0 1 1.629.922zm-15.772 13.22a3.502 3.502 0 0 1 .594-2.942l-3.56-3.56-3.536 3.535 3.56 3.56a3.502 3.502 0 0 1 2.942-.593zm1.63.922l1.414 1.414a1.496 1.496 0 0 0-2.122 0l1.415-1.414a1.498 1.498 0 0 0 0 2.122l-1.415-1.415a3.484 3.484 0 0 1-.922-1.629 3.484 3.484 0 0 1 1.63.922zm-15.772 13.22a3.502 3.502 0 0 1 .594-2.942l-3.56-3.56-3.536 3.535 3.56 3.56a3.502 3.502 0 0 1 2.942-.593zm1.63.922l1.414 1.415a1.496 1.496 0 0 0-2.122 0l1.414-1.415a1.498 1.498 0 0 0 0 2.122l-1.414-1.415a3.484 3.484 0 0 1-.922-1.629 3.484 3.484 0 0 1 1.63.922zm-15.772 13.22a3.502 3.502 0 0 1 .594-2.942l-3.561-3.56-3.536 3.535 3.561 3.561a3.502 3.502 0 0 1 2.942-.593zm1.63.922l1.413 1.415a1.496 1.496 0 0 0-2.12 0l1.413-1.415a1.498 1.498 0 0 0 0 2.122l-1.414-1.414a3.484 3.484 0 0 1-.922-1.63 3.484 3.484 0 0 1 1.63.922zM55.964 13.54c.248.998.05 2.084-.593 2.942l3.56 3.56 3.536-3.535-3.56-3.56a3.502 3.502 0 0 1-2.943.593zm-1.629-.922l-1.414-1.414a1.496 1.496 0 0 0 2.121 0l-1.414 1.414a1.498 1.498 0 0 0 0-2.121l1.414 1.414c.467.466.774 1.032.922 1.629a3.484 3.484 0 0 1-1.629-.922zM41.823 27.681c.248.998.05 2.084-.593 2.942l3.56 3.56 3.536-3.535-3.56-3.56a3.502 3.502 0 0 1-2.943.593zm-1.629-.922l-1.414-1.414a1.496 1.496 0 0 0 2.121 0l-1.414 1.414a1.498 1.498 0 0 0 0-2.121l1.414 1.414c.467.467.774 1.032.922 1.63a3.484 3.484 0 0 1-1.629-.923zM27.681 41.823c.248.998.05 2.084-.593 2.942l3.56 3.56 3.536-3.535-3.56-3.56a3.502 3.502 0 0 1-2.943.593zm-1.629-.922l-1.414-1.414a1.496 1.496 0 0 0 2.121 0l-1.414 1.414a1.498 1.498 0 0 0 0-2.121l1.414 1.414c.467.467.774 1.032.922 1.63a3.484 3.484 0 0 1-1.629-.923zM13.539 55.965c.247.999.05 2.085-.594 2.942l3.561 3.561 3.536-3.535-3.561-3.561a3.502 3.502 0 0 1-2.942.593zm-1.63-.922l-1.413-1.414a1.496 1.496 0 0 0 2.121 0l-1.414 1.414a1.498 1.498 0 0 0 0-2.12l1.414 1.413c.467.467.774 1.032.922 1.63a3.484 3.484 0 0 1-1.63-.923z" stroke="#000" stroke-width="5"/><path d="M103 54a4 4 0 1 0 0-8 4 4 0 0 0 0 8z" fill="#000"/></g></svg>