<svg width="128" height="128" xmlns="http://www.w3.org/2000/svg"><path d="M96.709 64.055c.116-.6.198-1.214.245-1.837C103.366 60.132 108 54.108 108 47c0-7.098-4.621-13.116-11.02-15.21.014-.261.02-.525.02-.79 0-8.837-7.163-16-16-16-1.937 0-3.793.344-5.51.974C73.703 9.086 67.445 4 60 4c-7.577 0-13.925 5.267-15.58 12.34A15.946 15.946 0 0 0 38 15c-8.837 0-16 7.163-16 16 0 .094 0 .187.002.28C14.6 32.684 9 39.188 9 47c0 7.844 5.644 14.37 13.093 15.737C22.96 70.757 29.75 77 38 77a15.93 15.93 0 0 0 9.712-3.284 26.332 26.332 0 0 0 5.873 2.373l-2.478 39.214a5 5 0 0 1-1.227 2.977l-4.429 5.061a1 1 0 0 0 .753 1.659h25.592a1 1 0 0 0 .753-1.659l-4.43-5.061a5 5 0 0 1-1.226-2.977l-2.439-38.596a26.312 26.312 0 0 0 7.676-2.389 15.925 15.925 0 0 0 4.526 2.085 8.116 8.116 0 0 0-.09 1.35C72.829 78.46 70 81.739 70 85.678c0 3.954 2.85 7.244 6.613 7.933a8.077 8.077 0 0 0 8.033 7.19 8.055 8.055 0 0 0 4.906-1.655c.927.51 1.92.915 2.966 1.196l-1.252 19.77a2.518 2.518 0 0 1-.62 1.5l-2.236 2.552a.504.504 0 0 0 .38.836h12.925a.506.506 0 0 0 .38-.836l-2.236-2.552a2.518 2.518 0 0 1-.62-1.5l-1.232-19.458a13.306 13.306 0 0 0 3.877-1.204 8.054 8.054 0 0 0 4.48 1.352c4.256 0 7.743-3.284 8.057-7.452 3.239-1.052 5.579-4.09 5.579-7.672 0-3.578-2.334-6.612-5.565-7.668.006-.132.01-.265.01-.398 0-4.455-3.618-8.067-8.081-8.067-.978 0-1.916.174-2.784.492a8.083 8.083 0 0 0-6.871-5.982z" fill="#000" fill-rule="evenodd"/></svg>