<svg width="110" height="110" xmlns="http://www.w3.org/2000/svg"><path d="M55 110C24.624 110 0 85.376 0 55S24.624 0 55 0s55 24.624 55 55-24.624 55-55 55zm0-77.999a2.245 2.245 0 0 0-1.675.673l-25.66 26.033a2.325 2.325 0 0 0 0 3.254 2.245 2.245 0 0 0 3.207 0L55 37.483l24.128 24.478a2.245 2.245 0 0 0 3.208 0 2.325 2.325 0 0 0 0-3.254L56.675 32.674A2.245 2.245 0 0 0 55 32.001zm0 15.365a2.245 2.245 0 0 0-1.675.673l-25.66 26.033a2.325 2.325 0 0 0 0 3.254 2.245 2.245 0 0 0 3.207 0L55 52.848l24.128 24.478a2.245 2.245 0 0 0 3.208 0 2.325 2.325 0 0 0 0-3.254L56.675 48.039A2.245 2.245 0 0 0 55 47.366z" fill="#000" fill-rule="evenodd"/></svg>