<svg width="128" height="128" xmlns="http://www.w3.org/2000/svg"><path d="M101.768 89.072h10.4c-3.255 6.608-8.252 11.784-14.99 15.528-7.715 4.297-17.123 6.445-28.223 6.445-10.742 0-20.02-1.815-27.832-5.444-7.812-3.63-13.623-8.985-17.432-16.065-3.808-7.08-5.712-14.787-5.712-23.12 0-9.147 2.164-17.668 6.494-25.562 4.33-7.893 10.254-13.818 17.773-17.773 7.52-3.955 16.113-5.933 25.781-5.933 8.204 0 15.495 1.595 21.875 4.786 6.38 3.19 11.255 7.723 14.624 13.598 3.37 5.876 5.054 12.297 5.054 19.263 0 8.3-2.555 15.804-7.666 22.51C95.501 85.768 87.282 90 77.256 90c-2.702 0-4.736-.472-6.104-1.416-1.367-.944-2.278-2.327-2.734-4.15C64.577 88.144 60.15 90 55.137 90c-5.404 0-9.888-1.864-13.452-5.59-3.565-3.728-5.347-8.684-5.347-14.869 0-7.65 2.148-14.632 6.445-20.947 5.209-7.683 11.882-11.524 20.02-11.524 5.794 0 10.075 2.214 12.842 6.64l1.22-5.419h12.89l-7.372 35.01c-.456 2.213-.684 3.646-.684 4.297 0 .813.187 1.424.562 1.83.374.408.822.611 1.343.611 1.562 0 3.58-.944 6.054-2.832 3.32-2.474 6.006-5.794 8.057-9.96 2.05-4.168 3.076-8.48 3.076-12.94 0-8.008-2.897-14.706-8.691-20.093-5.795-5.388-13.884-8.081-24.268-8.081-8.822 0-16.3 1.798-22.436 5.395-6.137 3.597-10.759 8.66-13.868 15.186-3.108 6.527-4.663 13.322-4.663 20.386 0 6.868 1.734 13.118 5.2 18.75 3.467 5.631 8.334 9.74 14.6 12.329 6.266 2.588 13.436 3.882 21.509 3.882 7.78 0 14.47-1.083 20.068-3.248 5.6-2.164 10.108-5.411 13.526-9.74zM48.984 69.004c0 4.134.839 7.178 2.515 9.13 1.676 1.954 3.752 2.93 6.226 2.93 1.855 0 3.597-.455 5.224-1.367 1.237-.65 2.458-1.676 3.662-3.076 1.726-1.986 3.215-4.883 4.468-8.691 1.253-3.809 1.88-7.357 1.88-10.645 0-3.678-.854-6.502-2.563-8.472-1.71-1.969-3.866-2.954-6.47-2.954-2.8 0-5.388 1.083-7.764 3.247-2.376 2.165-4.167 5.25-5.371 9.253-1.204 4.004-1.807 7.552-1.807 10.645z" fill="#000" fill-rule="evenodd"/></svg>