<svg width="128" height="128" xmlns="http://www.w3.org/2000/svg"><g fill="none" fill-rule="evenodd"><path d="M85.5 16.5h-5v9h-33v-9h-5v9H29a7.5 7.5 0 0 0-7.5 7.5v4.5h85V33a7.5 7.5 0 0 0-7.5-7.5H85.5v-9zM106.5 48.5h-85V103a7.5 7.5 0 0 0 7.5 7.5h70a7.5 7.5 0 0 0 7.5-7.5V48.5z" stroke="#000" stroke-width="5"/><path fill="#000" d="M31 58h12v12H31zM31 74h12v12H31zM31 90h12v12H31zM49 58h12v12H49zM49 74h12v12H49zM49 90h12v12H49zM67 58h12v12H67zM67 74h12v12H67zM67 90h12v12H67zM85 58h12v12H85zM85 74h12v12H85zM85 90h12v12H85z"/></g></svg>