<svg width="128" height="128" xmlns="http://www.w3.org/2000/svg"><g fill="none" fill-rule="evenodd"><path d="M11.5 11.5v105h105v-105h-105z" stroke="#000" stroke-width="5"/><path d="M73.268 64l17.96-17.78a5.944 5.944 0 0 0 0-8.467c-2.361-2.337-6.19-2.337-8.552 0l-17.961 17.78-17.39-17.215c-2.363-2.338-6.192-2.338-8.554 0a5.944 5.944 0 0 0 0 8.467L56.162 64l-17.39 17.215a5.944 5.944 0 0 0 0 8.467c2.361 2.338 6.19 2.338 8.552 0l17.39-17.215 17.962 17.78c2.362 2.337 6.19 2.337 8.553 0a5.944 5.944 0 0 0 0-8.467L73.268 64z" fill="#000"/></g></svg>