<svg width="128" height="128" xmlns="http://www.w3.org/2000/svg"><g fill="#000" fill-rule="evenodd"><path d="M37.24 24h79.52c1.237 0 2.24.796 2.24 1.778v12.444c0 .982-1.003 1.778-2.24 1.778H37.24c-1.237 0-2.24-.796-2.24-1.778V25.778C35 24.796 36.003 24 37.24 24zM20 42c-5.523 0-10-4.477-10-10s4.477-10 10-10 10 4.477 10 10-4.477 10-10 10zM37.24 56h79.52c1.237 0 2.24.796 2.24 1.778v12.444c0 .982-1.003 1.778-2.24 1.778H37.24c-1.237 0-2.24-.796-2.24-1.778V57.778C35 56.796 36.003 56 37.24 56zM20 74c-5.523 0-10-4.477-10-10s4.477-10 10-10 10 4.477 10 10-4.477 10-10 10zM37.24 88h79.52c1.237 0 2.24.796 2.24 1.778v12.444c0 .982-1.003 1.778-2.24 1.778H37.24c-1.237 0-2.24-.796-2.24-1.778V89.778C35 88.796 36.003 88 37.24 88zM20 106c-5.523 0-10-4.477-10-10s4.477-10 10-10 10 4.477 10 10-4.477 10-10 10z"/></g></svg>