<svg width="110" height="110" xmlns="http://www.w3.org/2000/svg"><g fill="#000" fill-rule="evenodd"><path d="M55 77.999a2.245 2.245 0 0 1-1.675-.673l-25.66-26.033a2.325 2.325 0 0 1 0-3.254 2.245 2.245 0 0 1 3.207 0L55 72.517l24.128-24.478a2.245 2.245 0 0 1 3.208 0 2.325 2.325 0 0 1 0 3.254L56.675 77.326a2.245 2.245 0 0 1-1.675.673zm0-15.365a2.245 2.245 0 0 1-1.675-.673l-25.66-26.033a2.325 2.325 0 0 1 0-3.254 2.245 2.245 0 0 1 3.207 0L55 57.152l24.128-24.478a2.245 2.245 0 0 1 3.208 0 2.325 2.325 0 0 1 0 3.254L56.675 61.961a2.245 2.245 0 0 1-1.675.673z"/><path d="M55 110C24.624 110 0 85.376 0 55S24.624 0 55 0s55 24.624 55 55-24.624 55-55 55zm0-7c26.51 0 48-21.49 48-48S81.51 7 55 7 7 28.49 7 55s21.49 48 48 48z"/></g></svg>