<svg width="128" height="128" xmlns="http://www.w3.org/2000/svg"><g fill="none" fill-rule="evenodd"><rect stroke="#000" stroke-width="6" x="12" y="12" width="104" height="104" rx="5"/><path d="M99 55.963v15.41a2.963 2.963 0 0 1-2.963 2.963h-49.39a3.556 3.556 0 0 1-1.83-.507l-15.241-9.145a1.185 1.185 0 0 1 0-2.033l15.24-9.144a3.556 3.556 0 0 1 1.83-.507h49.39A2.963 2.963 0 0 1 99 55.963zm-18.965-.592H49.217v2.37h30.818v-2.37zM87.147 53H83.59v21.336h3.556V53zm-42.13 3.997a.52.52 0 0 0-.662-.782l-12.028 6.94a.593.593 0 0 0 0 1.026l11.998 6.922a.54.54 0 0 0 .691-.809l-1.523-1.883a.593.593 0 0 1 .006-.754l3.031-3.612a.593.593 0 0 0 .004-.757l-3.038-3.696a.593.593 0 0 1 0-.753l1.52-1.842z" fill="#000"/></g></svg>