<svg width="128" height="128" xmlns="http://www.w3.org/2000/svg"><g fill="none" fill-rule="evenodd"><path d="M40 16.5a3.5 3.5 0 0 0-3.5 3.5v88a3.5 3.5 0 0 0 3.5 3.5h48a3.5 3.5 0 0 0 3.5-3.5V20a3.5 3.5 0 0 0-3.5-3.5H40zM105.196 34a3.502 3.502 0 0 1-1.66-2.5H98.5v5h5.035a3.502 3.502 0 0 1 1.661-2.5zm1.804-.5h2a1.496 1.496 0 0 0-1.5 1.5v-2a1.498 1.498 0 0 0 1.5 1.5h-2c-.66 0-1.277-.183-1.804-.5a3.484 3.484 0 0 1 1.804-.5zM105.196 54a3.502 3.502 0 0 1-1.66-2.5H98.5v5h5.035a3.502 3.502 0 0 1 1.661-2.5zm1.804-.5h2a1.496 1.496 0 0 0-1.5 1.5v-2a1.498 1.498 0 0 0 1.5 1.5h-2c-.66 0-1.277-.183-1.804-.5a3.484 3.484 0 0 1 1.804-.5zM105.196 74a3.502 3.502 0 0 1-1.66-2.5H98.5v5h5.035a3.502 3.502 0 0 1 1.661-2.5zm1.804-.5h2a1.496 1.496 0 0 0-1.5 1.5v-2a1.498 1.498 0 0 0 1.5 1.5h-2c-.66 0-1.277-.183-1.804-.5a3.484 3.484 0 0 1 1.804-.5zM105.196 94a3.502 3.502 0 0 1-1.66-2.5H98.5v5h5.035a3.502 3.502 0 0 1 1.661-2.5zm1.804-.5h2a1.496 1.496 0 0 0-1.5 1.5v-2a1.498 1.498 0 0 0 1.5 1.5h-2c-.66 0-1.277-.183-1.804-.5a3.484 3.484 0 0 1 1.804-.5zM22.804 34a3.502 3.502 0 0 1 1.66 2.5H29.5v-5h-5.035a3.502 3.502 0 0 1-1.661 2.5zM21 34.5h-2a1.496 1.496 0 0 0 1.5-1.5v2a1.498 1.498 0 0 0-1.5-1.5h2c.66 0 1.277.183 1.804.5-.527.317-1.144.5-1.804.5zM22.804 54a3.502 3.502 0 0 1 1.66 2.5H29.5v-5h-5.035a3.502 3.502 0 0 1-1.661 2.5zM21 54.5h-2a1.496 1.496 0 0 0 1.5-1.5v2a1.498 1.498 0 0 0-1.5-1.5h2c.66 0 1.277.183 1.804.5-.527.317-1.144.5-1.804.5zM22.804 74a3.502 3.502 0 0 1 1.66 2.5H29.5v-5h-5.035a3.502 3.502 0 0 1-1.661 2.5zM21 74.5h-2a1.496 1.496 0 0 0 1.5-1.5v2a1.498 1.498 0 0 0-1.5-1.5h2c.66 0 1.277.183 1.804.5-.527.317-1.144.5-1.804.5zM22.804 94a3.502 3.502 0 0 1 1.66 2.5H29.5v-5h-5.035a3.502 3.502 0 0 1-1.661 2.5zM21 94.5h-2a1.496 1.496 0 0 0 1.5-1.5v2a1.498 1.498 0 0 0-1.5-1.5h2c.66 0 1.277.183 1.804.5-.527.317-1.144.5-1.804.5z" stroke="#000" stroke-width="5"/><path d="M82 30a4 4 0 1 0 0-8 4 4 0 0 0 0 8z" fill="#000"/></g></svg>