<svg width="128" height="128" xmlns="http://www.w3.org/2000/svg"><g stroke="#000" stroke-width="5" fill="none" fill-rule="evenodd"><path d="M31.676 45.11a5.5 5.5 0 0 1-3.89 9.39H19a2.5 2.5 0 0 0-2.5 2.5v14a2.5 2.5 0 0 0 2.5 2.5h8.468a5.5 5.5 0 0 1 3.89 9.39l-6.055 6.053a2.5 2.5 0 0 0 0 3.535l9.9 9.9a2.5 2.5 0 0 0 3.535 0l6.373-6.373a5.5 5.5 0 0 1 9.389 3.89V109a2.5 2.5 0 0 0 2.5 2.5h14a2.5 2.5 0 0 0 2.5-2.5v-8.787a5.5 5.5 0 0 1 9.39-3.889l6.053 6.054a2.5 2.5 0 0 0 3.535 0l9.9-9.9a2.5 2.5 0 0 0 0-3.535l-6.054-6.054a5.5 5.5 0 0 1 3.89-9.389H109a2.5 2.5 0 0 0 2.5-2.5V57a2.5 2.5 0 0 0-2.5-2.5h-9.106a5.5 5.5 0 0 1-3.889-9.39l6.373-6.372a2.5 2.5 0 0 0 0-3.535l-9.9-9.9a2.5 2.5 0 0 0-3.535 0l-6.054 6.054a5.5 5.5 0 0 1-9.389-3.889V19a2.5 2.5 0 0 0-2.5-2.5H57a2.5 2.5 0 0 0-2.5 2.5v8.787a5.5 5.5 0 0 1-9.39 3.889l-6.372-6.373a2.5 2.5 0 0 0-3.535 0l-9.9 9.9a2.5 2.5 0 0 0 0 3.535l6.373 6.373z"/><path d="M64 85.5c11.874 0 21.5-9.626 21.5-21.5S75.874 42.5 64 42.5 42.5 52.126 42.5 64 52.126 85.5 64 85.5z"/></g></svg>