<svg width="128" height="128" xmlns="http://www.w3.org/2000/svg"><g fill="none" fill-rule="evenodd"><path fill="#000" d="M64 5l59 118H5z"/><path d="M61.964 86.487L57.55 54.84c-.282-2.144-.423-3.713-.423-4.708 0-4.754 2.458-7.131 7.373-7.131 5.01 0 7.514 2.129 7.514 6.386 0 1.336-.141 3.045-.423 5.127l-4.414 31.974h-5.213zM56 100.564c0-2.3.83-4.28 2.489-5.943 1.66-1.663 3.663-2.494 6.011-2.494 2.348 0 4.352.831 6.011 2.494 1.66 1.662 2.489 3.643 2.489 5.943 0 2.33-.837 4.319-2.512 5.966-1.675 1.647-3.671 2.47-5.988 2.47-2.317 0-4.313-.823-5.988-2.47-1.675-1.647-2.512-3.636-2.512-5.966z" fill="#FFF"/></g></svg>