<svg width="128" height="128" xmlns="http://www.w3.org/2000/svg"><g fill="none" fill-rule="evenodd"><path d="M52.061 45L75.94 56.25V117L52.06 105.75V45zm-3.183 0v60.75l-21.61 10.182A1.596 1.596 0 0 1 25 114.483l-.001-54.165a6.402 6.402 0 0 1 3.665-5.795L48.878 45zm51.855 1.068A1.596 1.596 0 0 1 103 47.517v54.165a6.402 6.402 0 0 1-3.665 5.795L79.122 117V56.25l21.61-10.182z" fill="#000"/><path d="M65.511 77.437C79.171 56.047 86 41.457 86 33.669 86 21.702 76.374 12 64.5 12S43 21.702 43 33.67c0 7.788 6.83 22.377 20.489 43.767a1.2 1.2 0 0 0 2.022 0z" fill="#FFF"/><path d="M65.406 73.513C77.802 54.383 84 41.336 84 34.371 84 23.673 75.27 15 64.5 15S45 23.673 45 34.371c0 6.965 6.198 20.012 18.594 39.142a1.08 1.08 0 0 0 1.812 0z" fill="#000"/></g></svg>