<svg width="128" height="128" xmlns="http://www.w3.org/2000/svg"><g fill="none" fill-rule="evenodd"><rect fill="#000" x="9" y="9" width="110" height="110" rx="5"/><path d="M83.593 34.095l10.896 10.896a2.963 2.963 0 0 1 0 4.19L59.564 84.107a3.556 3.556 0 0 1-1.652.936l-17.243 4.31a1.185 1.185 0 0 1-1.437-1.437l4.31-17.243c.157-.626.48-1.197.936-1.652l34.924-34.925a2.963 2.963 0 0 1 4.19 0zm-13.83 12.991L47.973 68.878l1.676 1.676L71.44 48.763l-1.676-1.677zm3.353-6.705l-2.514 2.515 15.086 15.086 2.515-2.514L73.116 40.38zM46.151 72.998a.52.52 0 0 0-1.02-.085l-3.598 13.412a.593.593 0 0 0 .726.726l13.378-3.59a.54.54 0 0 0-.083-1.06l-2.41-.254a.593.593 0 0 1-.527-.538l-.411-4.697a.593.593 0 0 0-.533-.538l-4.761-.465a.593.593 0 0 1-.533-.533l-.228-2.378z" fill="#FFF"/></g></svg>