<svg width="128" height="128" xmlns="http://www.w3.org/2000/svg"><g fill="none" fill-rule="evenodd"><path d="M43.422 33.577H18.167C13.104 33.577 9 38.42 9 44.394v56.79C9 107.156 13.104 112 18.167 112h91.666c5.063 0 9.167-4.843 9.167-10.817V44.394c0-5.974-4.104-10.817-9.167-10.817H84.578c.031-.445.047-.896.047-1.352 0-8.96-6.156-16.225-13.75-16.225h-13.75c-7.594 0-13.75 7.264-13.75 16.225 0 .456.016.907.047 1.352z" fill="#000"/><circle stroke="#FFF" stroke-width="6" cx="64" cy="71" r="24"/></g></svg>