<svg width="110" height="110" xmlns="http://www.w3.org/2000/svg"><path d="M55 110C24.624 110 0 85.376 0 55S24.624 0 55 0s55 24.624 55 55-24.624 55-55 55zM32.001 55c-.019.604.205 1.214.673 1.675l26.033 25.66a2.325 2.325 0 0 0 3.254 0 2.245 2.245 0 0 0 0-3.207L37.483 55l24.478-24.128a2.245 2.245 0 0 0 0-3.208 2.325 2.325 0 0 0-3.254 0L32.674 53.325A2.245 2.245 0 0 0 32.001 55zm15.365 0c-.019.604.205 1.214.673 1.675l26.033 25.66a2.325 2.325 0 0 0 3.254 0 2.245 2.245 0 0 0 0-3.207L52.848 55l24.478-24.128a2.245 2.245 0 0 0 0-3.208 2.325 2.325 0 0 0-3.254 0L48.039 53.325A2.245 2.245 0 0 0 47.366 55z" fill="#000" fill-rule="evenodd"/></svg>