<svg width="110" height="110" xmlns="http://www.w3.org/2000/svg"><path d="M55 110C24.624 110 0 85.376 0 55S24.624 0 55 0s55 24.624 55 55-24.624 55-55 55zm0-32.001a2.245 2.245 0 0 0 1.675-.673l25.66-26.033a2.325 2.325 0 0 0 0-3.254 2.245 2.245 0 0 0-3.207 0L55 72.517 30.872 48.039a2.245 2.245 0 0 0-3.208 0 2.325 2.325 0 0 0 0 3.254l25.661 26.033a2.245 2.245 0 0 0 1.675.673zm0-15.365a2.245 2.245 0 0 0 1.675-.673l25.66-26.033a2.325 2.325 0 0 0 0-3.254 2.245 2.245 0 0 0-3.207 0L55 57.152 30.872 32.674a2.245 2.245 0 0 0-3.208 0 2.325 2.325 0 0 0 0 3.254l25.661 26.033a2.245 2.245 0 0 0 1.675.673z" fill="#000" fill-rule="evenodd"/></svg>