<svg width="128" height="128" xmlns="http://www.w3.org/2000/svg"><g fill="none" fill-rule="evenodd"><rect stroke="#000" stroke-width="5" x="6.5" y="31.5" width="115" height="71" rx="3"/><rect fill="#000" x="12" y="37" width="16" height="16" rx="3"/><rect fill="#000" x="34" y="37" width="16" height="16" rx="3"/><rect fill="#000" x="39" y="59" width="22" height="16" rx="3"/><rect fill="#000" x="67" y="59" width="22" height="16" rx="3"/><rect fill="#000" x="94" y="59" width="22" height="16" rx="3"/><rect fill="#000" x="34" y="81" width="60" height="16" rx="3"/><rect fill="#000" x="100" y="81" width="16" height="16" rx="3"/><rect fill="#000" x="56" y="37" width="16" height="16" rx="3"/><rect fill="#000" x="78" y="37" width="16" height="16" rx="3"/><rect fill="#000" x="100" y="37" width="16" height="16" rx="3"/><rect fill="#000" x="12" y="59" width="22" height="16" rx="3"/><rect fill="#000" x="12" y="81" width="16" height="16" rx="3"/></g></svg>