<svg width="128" height="128" xmlns="http://www.w3.org/2000/svg"><g fill="none" fill-rule="evenodd"><path d="M39 77.5c-9.665 0-17.5 7.835-17.5 17.5v15a2.5 2.5 0 0 0 2.5 2.5h80a2.5 2.5 0 0 0 2.5-2.5V95c0-9.665-7.835-17.5-17.5-17.5H39z" stroke="#000" stroke-width="5"/><circle stroke="#000" stroke-width="5" cx="64" cy="40" r="27.5"/><path fill="#FFF" d="M9 29l5.882-6L109 119l-5.882 6z"/><path d="M13.206 17.226a4.52 4.52 0 0 1 6.413 0l96.189 96.765a4.575 4.575 0 0 1 0 6.45 4.52 4.52 0 0 1-6.413 0L13.206 23.678a4.575 4.575 0 0 1 0-6.451z" fill="#000"/></g></svg>