<svg width="128" height="128" xmlns="http://www.w3.org/2000/svg"><g fill="none" fill-rule="evenodd"><path d="M62 34h-6a2 2 0 0 0-2 2v4.169C35.074 44.676 21 61.695 21 82c0 23.748 19.252 43 43 43s43-19.252 43-43c0-19.946-13.58-36.72-32-41.58V36a2 2 0 0 0-2-2h-6V21a2 2 0 0 0-2-2h-1a2 2 0 0 0-2 2v13z" fill="#000"/><rect fill="#000" x="62" y="2" width="5" height="12" rx="2.5"/><rect fill="#000" transform="rotate(-45 56.01 12.01)" x="53.51" y="6.01" width="5" height="12" rx="2.5"/><rect fill="#000" transform="rotate(45 73.01 12.01)" x="70.51" y="6.01" width="5" height="12" rx="2.5"/><rect fill="#000" x="70" y="18" width="12" height="5" rx="2.5"/><rect fill="#000" x="47" y="18" width="12" height="5" rx="2.5"/><path d="M41.159 57C35.559 61.81 30 71.57 30 81.283" stroke="#FFF" stroke-width="5" stroke-linecap="round"/></g></svg>