<svg width="128" height="128" xmlns="http://www.w3.org/2000/svg"><g fill="none" fill-rule="evenodd"><path d="M99 23c5.523 0 10 4.477 10 10v5a2 2 0 0 1-2 2H21a2 2 0 0 1-2-2v-5c0-5.523 4.477-10 10-10h11v-7a2 2 0 0 1 2-2h6a2 2 0 0 1 2 2v7h28v-7a2 2 0 0 1 2-2h6a2 2 0 0 1 2 2v7h11zM109 103c0 5.523-4.477 10-10 10H29c-5.523 0-10-4.477-10-10V48a2 2 0 0 1 2-2h86a2 2 0 0 1 2 2v55z" fill="#000"/><path d="M69.315 79.183l11.546-11.546a3.888 3.888 0 0 0-5.498-5.498L63.817 73.685l-11.18-11.18a3.888 3.888 0 0 0-5.498 5.499l11.18 11.18-11.18 11.179a3.888 3.888 0 0 0 5.498 5.498l11.18-11.18 11.546 11.547a3.888 3.888 0 0 0 5.498-5.498L69.315 79.183z" fill="#FFF"/></g></svg>