<svg width="128" height="128" xmlns="http://www.w3.org/2000/svg"><path d="M19 11h90c5.523 0 10 4.477 10 10v90c0 5.523-4.477 10-10 10H19c-5.523 0-10-4.477-10-10V21c0-5.523 4.477-10 10-10zm50.005 67.146a2 2 0 0 0 1.982-1.732c.244-1.809.566-3.078.965-3.807.773-1.416 2.634-3.292 5.583-5.627 4.232-3.328 7.035-6.145 8.407-8.451 1.372-2.307 2.058-4.7 2.058-7.182 0-5.984-2.656-10.772-7.97-14.362C76.12 34.328 70.982 33 64.618 33c-8.174 0-14.238 1.905-18.194 5.714-2.365 2.278-4.435 6.558-6.209 12.839a2 2 0 0 0 1.68 2.528l12.92 1.599a2 2 0 0 0 2.187-1.504c.71-2.867 1.446-4.686 2.208-5.456 1.358-1.372 3.073-2.058 5.145-2.058 1.927 0 3.365.445 4.313 1.336.95.89 1.424 2.138 1.424 3.743 0 1.606-1.183 3.372-3.547 5.299-4.438 3.678-7.291 6.247-8.56 7.707a15.278 15.278 0 0 0-2.87 4.838c-.641 1.766-.962 4.065-.962 6.897 0 .919.745 1.664 1.664 1.664h13.189zm-10.423 4.422a5 5 0 0 0-5 5v5.72a5 5 0 0 0 5 5h7.822a5 5 0 0 0 5-5v-5.72a5 5 0 0 0-5-5h-7.822z" fill="#000" fill-rule="evenodd"/></svg>