<svg width="128" height="128" xmlns="http://www.w3.org/2000/svg"><g fill="#000" fill-rule="evenodd"><path d="M99 23c5.523 0 10 4.477 10 10v5a2 2 0 0 1-2 2H21a2 2 0 0 1-2-2v-5c0-5.523 4.477-10 10-10h11v-7a2 2 0 0 1 2-2h6a2 2 0 0 1 2 2v7h28v-7a2 2 0 0 1 2-2h6a2 2 0 0 1 2 2v7h11zM109 103c0 5.523-4.477 10-10 10H29c-5.523 0-10-4.477-10-10V48a2 2 0 0 1 2-2h86a2 2 0 0 1 2 2v55zM31 58v12h12V58H31zm0 16v12h12V74H31zm0 16v12h12V90H31zm18-32v12h12V58H49zm0 16v12h12V74H49zm0 16v12h12V90H49zm18-32v12h12V58H67zm0 16v12h12V74H67zm0 16v12h12V90H67zm18-32v12h12V58H85zm0 16v12h12V74H85zm0 16v12h12V90H85z"/></g></svg>