<svg width="128" height="128" xmlns="http://www.w3.org/2000/svg"><g fill="#000" fill-rule="evenodd"><path d="M39 50h5a5 5 0 0 1 5 5v26a5 5 0 0 1-5 5h-5c-5.523 0-10-4.477-10-10V60c0-5.523 4.477-10 10-10z"/><path d="M45 105H24V61.58L19 61v50h31c.325-.028.66 0 1 0h12a6 6 0 0 0 0-12H51a6 6 0 0 0-6 6zM89 50h-5a5 5 0 0 0-5 5v26a5 5 0 0 0 5 5h5c5.523 0 10-4.477 10-10V60c0-5.523-4.477-10-10-10z"/><path d="M109 72V57c0-24.853-20.147-45-45-45S19 32.147 19 57v15h5V58c0-22.091 17.909-40 40-40s40 17.909 40 40v14h5z"/></g></svg>