<svg width="128" height="128" xmlns="http://www.w3.org/2000/svg"><g fill="none" fill-rule="evenodd"><rect fill="#000" x="9" y="9" width="110" height="110" rx="5"/><path d="M39.75 31.57h63.462c.988 0 1.788.625 1.788 1.395v9.768c0 .77-.8 1.395-1.788 1.395H39.75c-.987 0-1.787-.625-1.787-1.395v-9.768c0-.77.8-1.395 1.787-1.395zM31.164 30v16H26.67V35.516a13.7 13.7 0 0 1-2.111 1.32c-.68.336-1.533.658-2.559.965v-3.584c1.513-.479 2.688-1.055 3.524-1.727A7.065 7.065 0 0 0 27.488 30h3.677zM40.592 57.57h63.616c.99 0 1.792.625 1.792 1.395v9.768c0 .77-.802 1.395-1.792 1.395H40.592c-.99 0-1.792-.625-1.792-1.395v-9.768c0-.77.802-1.395 1.792-1.395zM35.366 72H22c.153-1.295.618-2.513 1.395-3.654.776-1.141 2.233-2.488 4.37-4.04 1.304-.952 2.14-1.674 2.504-2.168.364-.493.547-.962.547-1.406 0-.479-.18-.888-.542-1.228-.36-.34-.815-.51-1.361-.51-.57 0-1.034.175-1.395.526-.361.35-.603.97-.727 1.856l-4.463-.354c.175-1.23.496-2.19.963-2.881.466-.69 1.124-1.22 1.974-1.588.85-.369 2.025-.553 3.527-.553 1.568 0 2.787.175 3.659.526.871.35 1.557.889 2.056 1.615.5.726.75 1.54.75 2.441 0 .959-.287 1.875-.86 2.747-.572.873-1.613 1.832-3.122 2.876-.897.608-1.497 1.034-1.8 1.277-.302.243-.657.562-1.066.955h6.957V72zM40.592 83.64h63.616c.99 0 1.792.653 1.792 1.459v10.207c0 .805-.802 1.458-1.792 1.458H40.592c-.99 0-1.792-.653-1.792-1.458V85.099c0-.806.802-1.459 1.792-1.459zm-14.14 3.395l-4.211-.774c.35-1.375 1.022-2.43 2.018-3.162.995-.733 2.404-1.099 4.227-1.099 2.093 0 3.606.4 4.539 1.2.933.8 1.4 1.805 1.4 3.016 0 .71-.19 1.353-.569 1.93-.379.575-.951 1.08-1.717 1.513.62.157 1.094.34 1.422.55.532.336.946.779 1.241 1.328.296.55.443 1.206.443 1.968 0 .957-.244 1.875-.732 2.753a4.962 4.962 0 0 1-2.111 2.03c-.92.475-2.126.712-3.62.712-1.46 0-2.61-.176-3.452-.527a5.162 5.162 0 0 1-2.078-1.542c-.543-.676-.96-1.527-1.252-2.551l4.452-.606c.175.92.446 1.557.814 1.912.369.355.837.533 1.406.533.598 0 1.095-.224 1.493-.673.397-.448.596-1.046.596-1.794 0-.763-.191-1.353-.574-1.772-.383-.418-.903-.628-1.559-.628-.35 0-.831.09-1.444.27l.23-3.264c.248.038.441.056.58.056.583 0 1.07-.19 1.46-.572.39-.38.585-.833.585-1.357 0-.5-.146-.9-.437-1.2-.292-.298-.693-.448-1.204-.448-.525 0-.951.163-1.28.488-.327.325-.55.895-.666 1.71z" fill="#FFF"/></g></svg>