<svg width="128" height="128" xmlns="http://www.w3.org/2000/svg"><path d="M0 12h128v104H0V12zm50.875 61.438L53.125 81h14.813l-17.22-45.813H35.282L18.063 81H32.53l2.219-7.563h16.125zm-2.969-9.907H37.813l5.03-16.468 5.063 16.468zm58.657-28.343H93.719v15.874c-1.25-1.333-2.683-2.333-4.297-3-1.615-.666-3.412-1-5.39-1-4.063 0-7.412 1.459-10.048 4.376-2.635 2.916-3.953 7.124-3.953 12.624 0 4.917 1.193 9.094 3.578 12.532 2.386 3.437 5.839 5.156 10.36 5.156 2.25 0 4.291-.48 6.125-1.438 1.375-.729 2.896-2.135 4.562-4.218V81h11.906V35.187zm-12.75 29.124c0 2.876-.542 4.948-1.626 6.22-1.083 1.27-2.437 1.906-4.062 1.906-1.52 0-2.797-.63-3.828-1.891-1.031-1.26-1.547-3.245-1.547-5.953 0-2.896.5-4.959 1.5-6.188s2.24-1.843 3.719-1.843c1.687 0 3.083.64 4.187 1.921 1.104 1.282 1.656 3.224 1.656 5.828z" fill="#000" fill-rule="evenodd"/></svg>