<svg width="128" height="128" xmlns="http://www.w3.org/2000/svg"><path d="M68 46h5a5 5 0 0 0 5-5V23a5 5 0 0 0-5-5H55a5 5 0 0 0-5 5v18a5 5 0 0 0 5 5h5v9H22a5.002 5.002 0 0 0-4.9 4H17v18h8V63h35v14h8V63h35v14h8V59h-.1a5.002 5.002 0 0 0-4.9-4H68v-9zM55 82h18a5 5 0 0 1 5 5v18a5 5 0 0 1-5 5H55a5 5 0 0 1-5-5V87a5 5 0 0 1 5-5zm-43 0h18a5 5 0 0 1 5 5v18a5 5 0 0 1-5 5H12a5 5 0 0 1-5-5V87a5 5 0 0 1 5-5zm86 0h18a5 5 0 0 1 5 5v18a5 5 0 0 1-5 5H98a5 5 0 0 1-5-5V87a5 5 0 0 1 5-5z" fill="#000" fill-rule="evenodd"/></svg>