<svg width="128" height="128" xmlns="http://www.w3.org/2000/svg"><path d="M11 11h106a2 2 0 0 1 2 2v12a2 2 0 0 1-2 2H11a2 2 0 0 1-2-2V13a2 2 0 0 1 2-2zm38 30h68a2 2 0 0 1 2 2v12a2 2 0 0 1-2 2H49a2 2 0 0 1-2-2V43a2 2 0 0 1 2-2zm0 30h68a2 2 0 0 1 2 2v12a2 2 0 0 1-2 2H49a2 2 0 0 1-2-2V73a2 2 0 0 1 2-2zm-38 30h106a2 2 0 0 1 2 2v12a2 2 0 0 1-2 2H11a2 2 0 0 1-2-2v-12a2 2 0 0 1 2-2zm19.752-59.482a2 2 0 0 1 3.409 1.42v41.996a2 2 0 0 1-3.41 1.42L9.592 65.356a2 2 0 0 1 0-2.84l21.16-20.998z" fill="#000" fill-rule="evenodd"/></svg>