<svg width="128" height="128" xmlns="http://www.w3.org/2000/svg" xmlns:xlink="http://www.w3.org/1999/xlink"><defs><path d="M68.382 14.765l46.91 93.82a5 5 0 0 1-4.472 7.236H17a5 5 0 0 1-4.472-7.236l46.91-93.82a5 5 0 0 1 8.944 0zM63.91 25.821L39.35 75.158l11.309-6.02 6.811 8.92L64 62.257l7.928 8.982 4.393-7.33 7.687 1.91-20.098-40z" id="a"/></defs><g fill="none" fill-rule="evenodd"><use fill="#000" xlink:href="#a"/><path stroke="#000" stroke-width="6" d="M65.699 16.107a2 2 0 0 0-3.578 0l-46.91 93.82A2 2 0 0 0 17 112.82h93.82a2 2 0 0 0 1.789-2.895l-46.91-93.82zm12.054 51.25l-5.36 8.943-7.458-8.449-6.683 16.171-8.43-11.039L32.49 82.21l31.406-63.095L89.62 70.307l-11.866-2.95z"/></g></svg>