<svg width="128" height="128" xmlns="http://www.w3.org/2000/svg"><path d="M23.07 33.136C24.335 25.81 42.4 20 64.5 20s40.166 5.81 41.43 13.136h.07v-7.39 12.73c0 1.8-.992 3.455-2.587 4.32-12.761 6.918-25.62 10.377-38.578 10.377-12.967 0-26.031-3.464-39.194-10.392A4.919 4.919 0 0 1 23 38.433V25.747v7.389h.07zM23 74.185c13.833 7.578 27.667 11.367 41.5 11.367 13.833 0 27.667-3.79 41.5-11.367v20.118c0 1.8-.992 3.455-2.587 4.32C90.652 105.54 77.793 109 64.835 109c-12.967 0-26.031-3.464-39.194-10.392A4.919 4.919 0 0 1 23 94.26V74.185zm0-27.914c13.833 7.578 27.667 11.367 41.5 11.367 13.833 0 27.667-3.789 41.5-11.367V66.39c0 1.799-.992 3.455-2.587 4.32-12.761 6.917-25.62 10.377-38.578 10.377-12.967 0-26.031-3.464-39.194-10.392A4.919 4.919 0 0 1 23 66.346V46.271z" fill="#000" fill-rule="evenodd"/></svg>