<svg width="128" height="128" xmlns="http://www.w3.org/2000/svg"><g fill="none" fill-rule="evenodd"><path d="M13 21h36.24L60 34.136h47a8 8 0 0 1 8 8v55.567c0 5.134-3.582 9.297-8 9.297H13c-4.418 0-8-4.163-8-9.297V30.297C5 25.163 8.582 21 13 21z" fill="#000"/><path d="M15.902 50h105.292a5 5 0 0 1 4.865 6.154l-11.147 47a5 5 0 0 1-4.865 3.846H9.703a5 5 0 0 1-4.957-5.654l6.2-47A5 5 0 0 1 15.901 50z" fill="#FFF"/><path d="M18.13 54H119a3 3 0 0 1 2.908 3.742l-10.978 43a3 3 0 0 1-2.906 2.258h-96a3 3 0 0 1-2.97-3.422l6.105-43A3 3 0 0 1 18.129 54z" fill="#000"/></g></svg>