<svg width="128" height="128" xmlns="http://www.w3.org/2000/svg"><path d="M14 12h24a2 2 0 0 1 2 2v24a2 2 0 0 1-2 2H14a2 2 0 0 1-2-2V14a2 2 0 0 1 2-2zm0 38h24a2 2 0 0 1 2 2v24a2 2 0 0 1-2 2H14a2 2 0 0 1-2-2V52a2 2 0 0 1 2-2zm0 38h24a2 2 0 0 1 2 2v24a2 2 0 0 1-2 2H14a2 2 0 0 1-2-2V90a2 2 0 0 1 2-2zm38-76h24a2 2 0 0 1 2 2v24a2 2 0 0 1-2 2H52a2 2 0 0 1-2-2V14a2 2 0 0 1 2-2zm0 38h24a2 2 0 0 1 2 2v24a2 2 0 0 1-2 2H52a2 2 0 0 1-2-2V52a2 2 0 0 1 2-2zm0 38h24a2 2 0 0 1 2 2v24a2 2 0 0 1-2 2H52a2 2 0 0 1-2-2V90a2 2 0 0 1 2-2zm38-76h24a2 2 0 0 1 2 2v24a2 2 0 0 1-2 2H90a2 2 0 0 1-2-2V14a2 2 0 0 1 2-2zm0 38h24a2 2 0 0 1 2 2v24a2 2 0 0 1-2 2H90a2 2 0 0 1-2-2V52a2 2 0 0 1 2-2zm0 38h24a2 2 0 0 1 2 2v24a2 2 0 0 1-2 2H90a2 2 0 0 1-2-2V90a2 2 0 0 1 2-2z" fill="#000" fill-rule="evenodd"/></svg>