<svg width="128" height="128" xmlns="http://www.w3.org/2000/svg"><g fill="none" fill-rule="evenodd"><circle fill="#000" cx="64" cy="64" r="60"/><path d="M61.964 74.487L57.55 42.84c-.282-2.144-.423-3.713-.423-4.708 0-4.754 2.458-7.131 7.373-7.131 5.01 0 7.514 2.129 7.514 6.386 0 1.336-.141 3.045-.423 5.127l-4.414 31.974h-5.213zM56 88.564c0-2.3.83-4.28 2.489-5.943 1.66-1.663 3.663-2.494 6.011-2.494 2.348 0 4.352.831 6.011 2.494C72.171 84.283 73 86.264 73 88.564c0 2.33-.837 4.319-2.512 5.966C68.813 96.177 66.817 97 64.5 97c-2.317 0-4.313-.823-5.988-2.47C56.837 92.883 56 90.894 56 88.564z" fill="#FFF"/></g></svg>