<svg width="128" height="128" xmlns="http://www.w3.org/2000/svg"><g fill="none" fill-rule="evenodd"><path d="M111.5 40a3.5 3.5 0 0 0-3.5-3.5H20a3.5 3.5 0 0 0-3.5 3.5v48a3.5 3.5 0 0 0 3.5 3.5h88a3.5 3.5 0 0 0 3.5-3.5V40zM94 105.196a3.502 3.502 0 0 1 2.5-1.66V98.5h-5v5.035c1.061.152 1.97.78 2.5 1.661zm.5 1.804v2a1.496 1.496 0 0 0-1.5-1.5h2a1.498 1.498 0 0 0-1.5 1.5v-2c0-.66.183-1.277.5-1.804.317.527.5 1.144.5 1.804zM74 105.196a3.502 3.502 0 0 1 2.5-1.66V98.5h-5v5.035c1.061.152 1.97.78 2.5 1.661zm.5 1.804v2a1.496 1.496 0 0 0-1.5-1.5h2a1.498 1.498 0 0 0-1.5 1.5v-2c0-.66.183-1.277.5-1.804.317.527.5 1.144.5 1.804zM54 105.196a3.502 3.502 0 0 1 2.5-1.66V98.5h-5v5.035c1.061.152 1.97.78 2.5 1.661zm.5 1.804v2a1.496 1.496 0 0 0-1.5-1.5h2a1.498 1.498 0 0 0-1.5 1.5v-2c0-.66.183-1.277.5-1.804.317.527.5 1.144.5 1.804zM34 105.196a3.502 3.502 0 0 1 2.5-1.66V98.5h-5v5.035c1.061.152 1.97.78 2.5 1.661zm.5 1.804v2a1.496 1.496 0 0 0-1.5-1.5h2a1.498 1.498 0 0 0-1.5 1.5v-2c0-.66.183-1.277.5-1.804.317.527.5 1.144.5 1.804zM94 22.804a3.502 3.502 0 0 1-2.5 1.66V29.5h5v-5.035a3.502 3.502 0 0 1-2.5-1.661zM93.5 21v-2a1.496 1.496 0 0 0 1.5 1.5h-2a1.498 1.498 0 0 0 1.5-1.5v2c0 .66-.183 1.277-.5 1.804A3.484 3.484 0 0 1 93.5 21zM74 22.804a3.502 3.502 0 0 1-2.5 1.66V29.5h5v-5.035a3.502 3.502 0 0 1-2.5-1.661zM73.5 21v-2a1.496 1.496 0 0 0 1.5 1.5h-2a1.498 1.498 0 0 0 1.5-1.5v2c0 .66-.183 1.277-.5 1.804A3.484 3.484 0 0 1 73.5 21zM54 22.804a3.502 3.502 0 0 1-2.5 1.66V29.5h5v-5.035a3.502 3.502 0 0 1-2.5-1.661zM53.5 21v-2a1.496 1.496 0 0 0 1.5 1.5h-2a1.498 1.498 0 0 0 1.5-1.5v2c0 .66-.183 1.277-.5 1.804A3.484 3.484 0 0 1 53.5 21zM34 22.804a3.502 3.502 0 0 1-2.5 1.66V29.5h5v-5.035a3.502 3.502 0 0 1-2.5-1.661zM33.5 21v-2a1.496 1.496 0 0 0 1.5 1.5h-2a1.498 1.498 0 0 0 1.5-1.5v2c0 .66-.183 1.277-.5 1.804A3.484 3.484 0 0 1 33.5 21z" stroke="#000" stroke-width="5"/><path d="M102 86a4 4 0 1 0 0-8 4 4 0 0 0 0 8z" fill="#000"/></g></svg>