<svg width="128" height="128" xmlns="http://www.w3.org/2000/svg"><path d="M123.113 51v26a5 5 0 0 1-5 5H34.775a6 6 0 0 1-3.087-.855L5.97 65.715a2 2 0 0 1 0-3.43l25.717-15.43A6 6 0 0 1 34.775 46h83.338a5 5 0 0 1 5 5zm-32-1h-52v4h52v-4zm12-4h-6v36h6V46zm-71.089 6.744a.877.877 0 0 0-1.115-1.319L10.614 63.134a1 1 0 0 0 0 1.732l20.245 11.68a.913.913 0 0 0 1.165-1.365l-2.57-3.178a1 1 0 0 1 .011-1.272l5.114-6.095a1 1 0 0 0 .006-1.278l-5.126-6.234a1 1 0 0 1 0-1.272l2.565-3.108z" fill="#000" fill-rule="evenodd"/></svg>