<svg width="128" height="128" xmlns="http://www.w3.org/2000/svg"><path d="M4 4h120v120H4V4zm0 0v15h15V4H4zm0 30v15h15V34H4zm0 30v15h15V64H4zm0 30v15h15V94H4zm15-75v15h15V19H19zm0 30v15h15V49H19zm0 30v15h15V79H19zm0 30v15h15v-15H19zM34 4v15h15V4H34zm0 30v15h15V34H34zm0 30v15h15V64H34zm0 30v15h15V94H34zm15-75v15h15V19H49zm0 30v15h15V49H49zm0 30v15h15V79H49zm0 30v15h15v-15H49zM64 4v15h15V4H64zm0 30v15h15V34H64zm0 30v15h15V64H64zm0 30v15h15V94H64zm15-75v15h15V19H79zm0 30v15h15V49H79zm0 30v15h15V79H79zm0 30v15h15v-15H79zM94 4v15h15V4H94zm0 30v15h15V34H94zm0 30v15h15V64H94zm0 30v15h15V94H94zm15-75v15h15V19h-15zm0 30v15h15V49h-15zm0 30v15h15V79h-15zm0 30v15h15v-15h-15z" fill="#000" fill-rule="evenodd"/></svg>