<svg width="128" height="128" xmlns="http://www.w3.org/2000/svg"><path d="M64 34c-5.523 0-10-4.477-10-10s4.477-10 10-10 10 4.477 10 10-4.477 10-10 10zM24 74c-5.523 0-10-4.477-10-10s4.477-10 10-10 10 4.477 10 10-4.477 10-10 10zm80 0c-5.523 0-10-4.477-10-10s4.477-10 10-10 10 4.477 10 10-4.477 10-10 10zM85.213 99.355c-3.905-3.905-3.905-10.237 0-14.142 3.905-3.905 10.237-3.905 14.142 0 3.906 3.905 3.906 10.237 0 14.142-3.905 3.906-10.237 3.906-14.142 0zm-42.426 0c-3.905 3.906-10.237 3.906-14.142 0-3.906-3.905-3.906-10.237 0-14.142 3.905-3.905 10.237-3.905 14.142 0 3.905 3.905 3.905 10.237 0 14.142zm56.568-56.568c-3.905 3.905-10.237 3.905-14.142 0-3.905-3.905-3.905-10.237 0-14.142 3.905-3.906 10.237-3.906 14.142 0 3.906 3.905 3.906 10.237 0 14.142zM64 114c-5.523 0-10-4.477-10-10s4.477-10 10-10 10 4.477 10 10-4.477 10-10 10z" stroke="#000" stroke-width="5" fill="none" fill-rule="evenodd"/></svg>