<svg width="128" height="128" xmlns="http://www.w3.org/2000/svg"><path d="M20 30a2 2 0 0 1 2 2v64a2 2 0 1 1-4 0V32a2 2 0 0 1 2-2zm9 0a1 1 0 0 1 1 1v66a1 1 0 0 1-2 0V31a1 1 0 0 1 1-1zm75 0a1 1 0 0 1 1 1v66a1 1 0 1 1-2 0V31a1 1 0 0 1 1-1zm-45 0a1 1 0 0 1 1 1v66a1 1 0 0 1-2 0V31a1 1 0 0 1 1-1zm-4 0a1 1 0 0 1 1 1v66a1 1 0 0 1-2 0V31a1 1 0 0 1 1-1zm-4 0a1 1 0 0 1 1 1v66a1 1 0 0 1-2 0V31a1 1 0 0 1 1-1zm-14 0a1 1 0 0 1 1 1v66a1 1 0 0 1-2 0V31a1 1 0 0 1 1-1zm-4 0a1 1 0 0 1 1 1v66a1 1 0 0 1-2 0V31a1 1 0 0 1 1-1zm-9 0a1 1 0 0 1 1 1v66a1 1 0 0 1-2 0V31a1 1 0 0 1 1-1zm20 0a2 2 0 0 1 2 2v64a2 2 0 1 1-4 0V32a2 2 0 0 1 2-2zm22 0a2 2 0 0 1 2 2v64a2 2 0 1 1-4 0V32a2 2 0 0 1 2-2zm7 0a2 2 0 0 1 2 2v64a2 2 0 1 1-4 0V32a2 2 0 0 1 2-2zm7 0a2 2 0 0 1 2 2v64a2 2 0 1 1-4 0V32a2 2 0 0 1 2-2zm6 0a2 2 0 0 1 2 2v64a2 2 0 1 1-4 0V32a2 2 0 0 1 2-2zm5 0a2 2 0 0 1 2 2v64a2 2 0 1 1-4 0V32a2 2 0 0 1 2-2zm7 0h2a2 2 0 0 1 2 2v64a2 2 0 0 1-2 2h-2a2 2 0 0 1-2-2V32a2 2 0 0 1 2-2zm11 0a2 2 0 0 1 2 2v64a2 2 0 0 1-4 0V32a2 2 0 0 1 2-2z" fill="#000" fill-rule="evenodd"/></svg>