<svg width="128" height="128" xmlns="http://www.w3.org/2000/svg"><path d="M64 119C33.624 119 9 94.376 9 64S33.624 9 64 9s55 24.624 55 55-24.624 55-55 55zm0-77.999a2.245 2.245 0 0 0-1.675.673l-25.66 26.033a2.325 2.325 0 0 0 0 3.254 2.245 2.245 0 0 0 3.207 0L64 46.483l24.128 24.478a2.245 2.245 0 0 0 3.208 0 2.325 2.325 0 0 0 0-3.254L65.675 41.674A2.245 2.245 0 0 0 64 41.001zm0 15.365a2.245 2.245 0 0 0-1.675.673l-25.66 26.033a2.325 2.325 0 0 0 0 3.254 2.245 2.245 0 0 0 3.207 0L64 61.848l24.128 24.478a2.245 2.245 0 0 0 3.208 0 2.325 2.325 0 0 0 0-3.254L65.675 57.039A2.245 2.245 0 0 0 64 56.366z" fill="#000" fill-rule="evenodd"/></svg>