<svg width="128" height="128" xmlns="http://www.w3.org/2000/svg"><g fill="#000" fill-rule="evenodd"><path d="M41.001 64a2.245 2.245 0 0 1 .673-1.675l26.033-25.66a2.325 2.325 0 0 1 3.254 0 2.245 2.245 0 0 1 0 3.207L46.483 64l24.478 24.128a2.245 2.245 0 0 1 0 3.208 2.325 2.325 0 0 1-3.254 0L41.674 65.675A2.245 2.245 0 0 1 41.001 64zm15.365 0a2.245 2.245 0 0 1 .673-1.675l26.033-25.66a2.325 2.325 0 0 1 3.254 0 2.245 2.245 0 0 1 0 3.207L61.848 64l24.478 24.128a2.245 2.245 0 0 1 0 3.208 2.325 2.325 0 0 1-3.254 0L57.039 65.675A2.245 2.245 0 0 1 56.366 64z"/><path d="M64 119C33.624 119 9 94.376 9 64S33.624 9 64 9s55 24.624 55 55-24.624 55-55 55zm0-7c26.51 0 48-21.49 48-48S90.51 16 64 16 16 37.49 16 64s21.49 48 48 48z"/></g></svg>