<svg width="128" height="128" xmlns="http://www.w3.org/2000/svg"><path d="M7 29h114a3 3 0 0 1 3 3v70a3 3 0 0 1-3 3H7a3 3 0 0 1-3-3V32a3 3 0 0 1 3-3zm8 8a3 3 0 0 0-3 3v10a3 3 0 0 0 3 3h10a3 3 0 0 0 3-3V40a3 3 0 0 0-3-3H15zm22 0a3 3 0 0 0-3 3v10a3 3 0 0 0 3 3h10a3 3 0 0 0 3-3V40a3 3 0 0 0-3-3H37zm5 22a3 3 0 0 0-3 3v10a3 3 0 0 0 3 3h16a3 3 0 0 0 3-3V62a3 3 0 0 0-3-3H42zm28 0a3 3 0 0 0-3 3v10a3 3 0 0 0 3 3h16a3 3 0 0 0 3-3V62a3 3 0 0 0-3-3H70zm27 0a3 3 0 0 0-3 3v10a3 3 0 0 0 3 3h16a3 3 0 0 0 3-3V62a3 3 0 0 0-3-3H97zM37 81a3 3 0 0 0-3 3v10a3 3 0 0 0 3 3h54a3 3 0 0 0 3-3V84a3 3 0 0 0-3-3H37zm66 0a3 3 0 0 0-3 3v10a3 3 0 0 0 3 3h10a3 3 0 0 0 3-3V84a3 3 0 0 0-3-3h-10zM59 37a3 3 0 0 0-3 3v10a3 3 0 0 0 3 3h10a3 3 0 0 0 3-3V40a3 3 0 0 0-3-3H59zm22 0a3 3 0 0 0-3 3v10a3 3 0 0 0 3 3h10a3 3 0 0 0 3-3V40a3 3 0 0 0-3-3H81zm22 0a3 3 0 0 0-3 3v10a3 3 0 0 0 3 3h10a3 3 0 0 0 3-3V40a3 3 0 0 0-3-3h-10zM15 59a3 3 0 0 0-3 3v10a3 3 0 0 0 3 3h16a3 3 0 0 0 3-3V62a3 3 0 0 0-3-3H15zm0 22a3 3 0 0 0-3 3v10a3 3 0 0 0 3 3h10a3 3 0 0 0 3-3V84a3 3 0 0 0-3-3H15z" fill="#000" fill-rule="evenodd"/></svg>