<svg width="128" height="128" xmlns="http://www.w3.org/2000/svg"><g fill="none" fill-rule="evenodd"><rect stroke="#000" stroke-width="5" x="11.5" y="11.5" width="105" height="105" rx="5"/><path d="M43.993 34.468h58.363c.908 0 1.644.584 1.644 1.305v9.133c0 .72-.736 1.305-1.644 1.305H43.993c-.908 0-1.644-.584-1.644-1.305v-9.133c0-.72.736-1.305 1.644-1.305zm-12.654 13.21a7.34 7.34 0 1 1 0-14.678 7.34 7.34 0 0 1 0 14.679zm12.654 10.276h58.363c.908 0 1.644.584 1.644 1.305v9.133c0 .721-.736 1.305-1.644 1.305H43.993c-.908 0-1.644-.584-1.644-1.305V59.26c0-.72.736-1.305 1.644-1.305zM31.339 71.165a7.34 7.34 0 1 1 0-14.679 7.34 7.34 0 0 1 0 14.68zM43.993 81.44h58.363c.908 0 1.644.585 1.644 1.305v9.134c0 .72-.736 1.304-1.644 1.304H43.993c-.908 0-1.644-.584-1.644-1.304v-9.134c0-.72.736-1.305 1.644-1.305zM31.339 94.651a7.34 7.34 0 1 1 0-14.679 7.34 7.34 0 0 1 0 14.68z" fill="#000"/></g></svg>