<svg width="128" height="128" xmlns="http://www.w3.org/2000/svg"><g fill="none" fill-rule="evenodd"><path d="M67.5 60.5V44.75a3.75 3.75 0 0 0-7.5 0V60.5H44.75a3.75 3.75 0 0 0 0 7.5H60v15.25a3.75 3.75 0 0 0 7.5 0V68h15.75a3.75 3.75 0 0 0 0-7.5H67.5z" fill="#000"/><path d="M33 15a5 5 0 0 0-5 5v88a5 5 0 0 0 5 5h62a5 5 0 0 0 5-5V44.071a2 2 0 0 0-.586-1.414L72.345 15.586A2 2 0 0 0 70.931 15H33z" stroke="#000" stroke-width="6"/><path d="M74.368 43.632V15H69v29a5 5 0 0 0 5 5h29v-5.368H74.368z" fill="#000"/></g></svg>