<svg width="128" height="128" xmlns="http://www.w3.org/2000/svg"><path d="M60.48 103.688H18V70.972c0-12.045 2.506-21.55 7.52-28.516C30.533 35.491 39.126 29.339 51.3 24l9.18 17.383c-7.487 3.515-12.662 7.015-15.527 10.498-2.864 3.483-4.46 7.6-4.785 12.353H60.48v39.454zm49.512 0h-42.48V70.972c0-12.045 2.506-21.55 7.52-28.516 5.012-6.966 13.606-13.118 25.78-18.457l9.18 17.383c-7.487 3.515-12.663 7.015-15.527 10.498-2.865 3.483-4.46 7.6-4.785 12.353h20.312v39.454z" fill="#000" fill-rule="evenodd"/></svg>