<svg width="128" height="128" xmlns="http://www.w3.org/2000/svg"><g fill="none" fill-rule="evenodd"><path d="M16 62h96v42a8 8 0 0 1-8 8H24a8 8 0 0 1-8-8V62zm41 0v50h14V62H57zM13 41h102a4 4 0 0 1 4 4v8a4 4 0 0 1-4 4H13a4 4 0 0 1-4-4v-8a4 4 0 0 1 4-4z" fill="#000"/><path d="M63.172 41.01C60.426 44.072 37 39.283 37 31c0-8.284 6.716-15 15-15 8.284 0 13.552 22.354 11.172 25.01zm2.402 0C63.194 38.353 68.462 16 76.747 16c8.284 0 15 6.716 15 15 0 8.284-23.426 13.073-26.173 10.01z" stroke="#000" stroke-width="6"/></g></svg>