<svg width="128" height="128" xmlns="http://www.w3.org/2000/svg"><path d="M70.454 76.707a26.312 26.312 0 0 0 7.676-2.389A15.925 15.925 0 0 0 87 77c8.427 0 15.332-6.514 15.954-14.782C109.366 60.132 114 54.108 114 47c0-7.098-4.621-13.116-11.02-15.21.014-.261.02-.525.02-.79 0-8.837-7.163-16-16-16-1.937 0-3.793.344-5.51.974C79.703 9.086 73.445 4 66 4c-7.577 0-13.925 5.267-15.58 12.34A15.946 15.946 0 0 0 44 15c-8.837 0-16 7.163-16 16 0 .094 0 .187.002.28C20.6 32.684 15 39.188 15 47c0 7.844 5.644 14.37 13.093 15.737C28.96 70.757 35.75 77 44 77a15.93 15.93 0 0 0 9.712-3.284 26.332 26.332 0 0 0 5.873 2.373l-2.478 39.214a5 5 0 0 1-1.227 2.977l-4.429 5.061a1 1 0 0 0 .753 1.659h25.592a1 1 0 0 0 .753-1.659l-4.43-5.061a5 5 0 0 1-1.226-2.977l-2.439-38.596z" fill="#000" fill-rule="evenodd"/></svg>