<svg width="128" height="128" xmlns="http://www.w3.org/2000/svg" xmlns:xlink="http://www.w3.org/1999/xlink"><defs><path d="M68.382 14.765l46.91 93.82a5 5 0 0 1-4.472 7.236H17a5 5 0 0 1-4.472-7.236l46.91-93.82a5 5 0 0 1 8.944 0zm-6.215 14.717L41.541 72.827a1 1 0 0 0 1.445 1.27l6.897-4.457a1 1 0 0 1 1.338.233l5.195 6.803a1 1 0 0 0 1.72-.225l5.251-12.71a1 1 0 0 1 1.674-.28l5.963 6.754a1 1 0 0 0 1.607-.148L75.91 64.6a1 1 0 0 1 1.173-.435l5.409 1.8a1 1 0 0 0 1.206-1.403L65.754 29.432a2 2 0 0 0-3.587.05z" id="a"/></defs><g fill="none" fill-rule="evenodd"><use fill="#000" xlink:href="#a"/><path stroke="#000" stroke-width="6" d="M65.699 16.107a2 2 0 0 0-3.578 0l-46.91 93.82A2 2 0 0 0 17 112.82h93.82a2 2 0 0 0 1.789-2.895l-46.91-93.82zm11.958 51.41l-2.453 4.093a4 4 0 0 1-6.43.59l-3.839-4.349-4.027 9.746a4 4 0 0 1-6.876.9l-4.073-5.334-5.345 3.453a4 4 0 0 1-5.782-5.078l20.626-43.345a5 5 0 0 1 8.968-.126l17.943 35.13a4 4 0 0 1-4.826 5.614l-3.886-1.294z"/></g></svg>