<svg width="128" height="128" xmlns="http://www.w3.org/2000/svg"><g fill="#000" fill-rule="evenodd"><path d="M64 41.001a2.245 2.245 0 0 1 1.675.673l25.66 26.033a2.325 2.325 0 0 1 0 3.254 2.245 2.245 0 0 1-3.207 0L64 46.483 39.872 70.961a2.245 2.245 0 0 1-3.208 0 2.325 2.325 0 0 1 0-3.254l25.661-26.033A2.245 2.245 0 0 1 64 41.001zm0 15.365a2.245 2.245 0 0 1 1.675.673l25.66 26.033a2.325 2.325 0 0 1 0 3.254 2.245 2.245 0 0 1-3.207 0L64 61.848 39.872 86.326a2.245 2.245 0 0 1-3.208 0 2.325 2.325 0 0 1 0-3.254l25.661-26.033A2.245 2.245 0 0 1 64 56.366z"/><path d="M64 119C33.624 119 9 94.376 9 64S33.624 9 64 9s55 24.624 55 55-24.624 55-55 55zm0-7c26.51 0 48-21.49 48-48S90.51 16 64 16 16 37.49 16 64s21.49 48 48 48z"/></g></svg>