<svg width="128" height="128" xmlns="http://www.w3.org/2000/svg"><path d="M56.006 64.003c.001-1.44-.17-2.89-.524-4.318L77.485 46.98c5.631 5.42 14.373 6.714 21.48 2.61 8.609-4.97 11.559-15.979 6.588-24.588-4.97-8.61-15.98-11.559-24.588-6.588-7.107 4.103-10.358 12.32-8.48 19.906L50.482 51.025a17.93 17.93 0 0 0-5.08-3.432A17.886 17.886 0 0 0 38.003 46a17.886 17.886 0 0 0-7.4 1.593 17.924 17.924 0 0 0-5.331 3.679 17.924 17.924 0 0 0-3.68 5.332A17.886 17.886 0 0 0 20 64.003a17.886 17.886 0 0 0 1.593 7.4 17.924 17.924 0 0 0 3.679 5.331 17.924 17.924 0 0 0 5.332 3.68 17.886 17.886 0 0 0 7.399 1.592 17.886 17.886 0 0 0 7.4-1.593 17.93 17.93 0 0 0 5.08-3.432l22.002 12.704c-1.878 7.586 1.373 15.803 8.48 19.906 8.609 4.971 19.617 2.021 24.588-6.588 4.97-8.61 2.02-19.618-6.588-24.588-7.107-4.104-15.849-2.81-21.48 2.61L55.482 68.32c.354-1.427.525-2.877.524-4.318z" fill="#000" fill-rule="evenodd"/></svg>