<svg width="128" height="128" xmlns="http://www.w3.org/2000/svg"><path d="M34.637 24H60.71c10.781 0 18.75 1.514 23.906 4.541 5.156 3.027 7.735 7.588 7.735 13.682 0 9.336-5.586 16.074-16.758 20.215 13.71 2.07 20.566 8.32 20.566 18.75 0 6.875-2.773 12.392-8.32 16.552-5.547 4.16-15.274 6.24-29.18 6.24l-25.898.06c-.508-1.33-.762-2.58-.762-3.75 0-.782.205-1.358.615-1.73.41-.37 1.084-.556 2.022-.556h4.336c.273-5.469.41-17.266.41-35.39 0-16.29-.137-27.15-.41-32.579h-6.211c-.508-1.328-.762-2.558-.762-3.691 0-.82.205-1.416.615-1.787.41-.371 1.084-.557 2.022-.557zM52.39 66.95v13.945c0 6.875.498 11.015 1.494 12.421.996 1.407 4.619 2.11 10.869 2.11 6.094 0 10.459-1.065 13.096-3.194 2.636-2.128 3.955-5.498 3.955-10.107 0-5.078-1.68-8.975-5.04-11.69-3.359-2.714-8.476-4.072-15.35-4.072-3.282 0-6.29.196-9.024.586zm0-8.438c2.265.312 4.785.468 7.558.468 6.407 0 11.016-1.132 13.828-3.398 2.813-2.266 4.22-5.547 4.22-9.844 0-4.531-1.397-7.861-4.19-9.99-2.793-2.129-7.159-3.193-13.096-3.193-2.813 0-5.488.195-8.027.586-.157 5-.254 13.457-.293 25.37z" fill="#000" fill-rule="evenodd"/></svg>