<svg width="128" height="128" xmlns="http://www.w3.org/2000/svg"><path d="M97.054 13.536l18.385 18.384a5 5 0 0 1 0 7.071l-58.93 58.93a6 6 0 0 1-2.787 1.578l-29.095 7.273a2 2 0 0 1-2.425-2.425l7.274-29.095a6 6 0 0 1 1.578-2.788l58.929-58.928a5 5 0 0 1 7.071 0zM73.72 35.456l-36.77 36.77 2.828 2.828 36.77-36.77-2.828-2.828zm5.656-11.314l-4.242 4.243L100.59 53.84l4.242-4.243-25.456-25.456zM33.878 79.178a.877.877 0 0 0-1.721-.144l-6.072 22.63a1 1 0 0 0 1.225 1.225l22.574-6.056a.913.913 0 0 0-.14-1.79l-4.066-.43a1 1 0 0 1-.89-.906l-.695-7.926a1 1 0 0 0-.899-.908l-8.033-.784a1 1 0 0 1-.899-.9l-.384-4.011z" fill="#000" fill-rule="evenodd"/></svg>