<svg width="128" height="128" xmlns="http://www.w3.org/2000/svg"><path d="M57 50.885V22a5 5 0 0 1 5-5h4a5 5 0 0 1 5 5v29.606l23.905-16.738a5 5 0 0 1 6.963 1.228l2.294 3.276a5 5 0 0 1-1.227 6.964L76.719 64.692l26.216 18.356a5 5 0 0 1 1.227 6.964l-2.294 3.277a5 5 0 0 1-6.963 1.227L71 77.778V106a5 5 0 0 1-5 5h-4a5 5 0 0 1-5-5V78.5L34.126 94.516a5 5 0 0 1-6.964-1.227l-2.294-3.277a5 5 0 0 1 1.228-6.964L52.31 64.692 26.096 46.336a5 5 0 0 1-1.228-6.964l2.294-3.276a5 5 0 0 1 6.964-1.228L57 50.885z" fill="#000" fill-rule="evenodd"/></svg>