<svg width="128" height="128" xmlns="http://www.w3.org/2000/svg" xmlns:xlink="http://www.w3.org/1999/xlink"><defs><path d="M67 6c17.547.373 30.987 5.227 40.32 14.56C116.653 29.893 121.88 43.707 123 62H67V6z" id="a"/><path d="M67 62h55.071c2.244 8.868 1.867 16.953-1.13 24.256-2.997 7.304-8.071 13.253-15.221 17.848L67 62z" id="b"/></defs><g fill="none" fill-rule="evenodd"><circle fill="#000" cx="64" cy="64" r="50"/><use fill="#000" xlink:href="#a"/><path stroke="#FFF" stroke-width="4" d="M69 8.064V60h51.853c-1.353-16.782-6.353-29.432-14.947-38.026C97.329 13.398 85.059 8.746 69 8.064z"/><g><use fill="#000" xlink:href="#b"/><path stroke="#FFF" stroke-width="4" d="M71.556 64l34.476 37.489c6.077-4.235 10.418-9.557 13.059-15.992C121.75 79.02 122.224 71.87 120.49 64H71.556z"/></g></g></svg>