<svg width="128" height="128" xmlns="http://www.w3.org/2000/svg"><path d="M59.5 22v33.687L32.692 36.916a2.5 2.5 0 0 0-3.482.614l-2.294 3.276a2.5 2.5 0 0 0 .614 3.482l29.14 20.404-29.14 20.404a2.5 2.5 0 0 0-.614 3.482l2.294 3.277a2.5 2.5 0 0 0 3.482.614L59.5 73.697V106a2.5 2.5 0 0 0 2.5 2.5h4a2.5 2.5 0 0 0 2.5-2.5V72.976l27.838 19.493a2.5 2.5 0 0 0 3.482-.614l2.295-3.277a2.5 2.5 0 0 0-.614-3.482L72.36 64.692l29.14-20.404a2.5 2.5 0 0 0 .614-3.482L99.82 37.53a2.5 2.5 0 0 0-3.482-.614L68.5 56.408V22a2.5 2.5 0 0 0-2.5-2.5h-4a2.5 2.5 0 0 0-2.5 2.5z" stroke="#000" stroke-width="5" fill="none" fill-rule="evenodd"/></svg>