<svg width="128" height="128" xmlns="http://www.w3.org/2000/svg"><path d="M59.172 59.172v-25H44a2 2 0 0 1-1.414-3.415l20.171-20.171a2 2 0 0 1 2.829 0l20.171 20.171a2 2 0 0 1-1.414 3.415H69.172v25h25V44a2 2 0 0 1 3.414-1.414l20.171 20.171a2 2 0 0 1 0 2.829L97.586 85.757a2 2 0 0 1-3.414-1.414V69.172h-25v25h15.171a2 2 0 0 1 1.414 3.414l-20.171 20.171a2 2 0 0 1-2.829 0L42.586 97.586A2 2 0 0 1 44 94.172h15.172v-25h-25v15.171a2 2 0 0 1-3.415 1.414L10.586 65.586a2 2 0 0 1 0-2.829l20.171-20.171A2 2 0 0 1 34.172 44v15.172h25z" fill="#000" fill-rule="evenodd"/></svg>