<svg width="128" height="128" xmlns="http://www.w3.org/2000/svg"><g fill="none" fill-rule="evenodd"><path d="M54.561 48.941v55.223l18.878 8.895V57.836L54.56 48.94zm-8.183 0L29.73 56.785a3.902 3.902 0 0 0-2.23 3.533v52.74l18.878-8.894V48.941zm54.122 0l-18.878 8.895v55.223l16.648-7.844a3.902 3.902 0 0 0 2.23-3.533v-52.74z" stroke="#000" stroke-width="5"/><path d="M65.511 77.437C79.171 56.047 86 41.457 86 33.669 86 21.702 76.374 12 64.5 12S43 21.702 43 33.67c0 7.788 6.83 22.377 20.489 43.767a1.2 1.2 0 0 0 2.022 0z" fill="#FFF"/><path d="M65.406 73.513C77.802 54.383 84 41.336 84 34.371 84 23.673 75.27 15 64.5 15S45 23.673 45 34.371c0 6.965 6.198 20.012 18.594 39.142a1.08 1.08 0 0 0 1.812 0z" fill="#000"/></g></svg>