<svg width="128" height="128" xmlns="http://www.w3.org/2000/svg"><path d="M114 40v48a6 6 0 0 1-6 6H20a6 6 0 0 1-6-6V40a6 6 0 0 1 6-6h88a6 6 0 0 1 6 6zM98 82a4 4 0 1 0 8 0 4 4 0 0 0-8 0zm-1 24a1 1 0 0 0-1 1v2a1 1 0 0 1-1 1h-2a1 1 0 0 1-1-1v-2a1 1 0 0 0-1-1h-1a1 1 0 0 1-1-1v-9h10v9a1 1 0 0 1-1 1h-1zm-20 0a1 1 0 0 0-1 1v2a1 1 0 0 1-1 1h-2a1 1 0 0 1-1-1v-2a1 1 0 0 0-1-1h-1a1 1 0 0 1-1-1v-9h10v9a1 1 0 0 1-1 1h-1zm-20 0a1 1 0 0 0-1 1v2a1 1 0 0 1-1 1h-2a1 1 0 0 1-1-1v-2a1 1 0 0 0-1-1h-1a1 1 0 0 1-1-1v-9h10v9a1 1 0 0 1-1 1h-1zm-20 0a1 1 0 0 0-1 1v2a1 1 0 0 1-1 1h-2a1 1 0 0 1-1-1v-2a1 1 0 0 0-1-1h-1a1 1 0 0 1-1-1v-9h10v9a1 1 0 0 1-1 1h-1zm60-84h1a1 1 0 0 1 1 1v9H89v-9a1 1 0 0 1 1-1h1a1 1 0 0 0 1-1v-2a1 1 0 0 1 1-1h2a1 1 0 0 1 1 1v2a1 1 0 0 0 1 1zm-20 0h1a1 1 0 0 1 1 1v9H69v-9a1 1 0 0 1 1-1h1a1 1 0 0 0 1-1v-2a1 1 0 0 1 1-1h2a1 1 0 0 1 1 1v2a1 1 0 0 0 1 1zm-20 0h1a1 1 0 0 1 1 1v9H49v-9a1 1 0 0 1 1-1h1a1 1 0 0 0 1-1v-2a1 1 0 0 1 1-1h2a1 1 0 0 1 1 1v2a1 1 0 0 0 1 1zm-20 0h1a1 1 0 0 1 1 1v9H29v-9a1 1 0 0 1 1-1h1a1 1 0 0 0 1-1v-2a1 1 0 0 1 1-1h2a1 1 0 0 1 1 1v2a1 1 0 0 0 1 1z" fill="#000" fill-rule="evenodd"/></svg>