<svg width="128" height="128" xmlns="http://www.w3.org/2000/svg"><path d="M59.326 62.861L78.418 43.77l-9.9-9.9-1.414 1.414a4 4 0 0 1-5.657 0l-2.828-2.828a4 4 0 0 1 0-5.657l16.97-16.97a4 4 0 0 1 5.657 0l2.829 2.828a4 4 0 0 1 0 5.657l-1.415 1.414 25.456 25.456 1.414-1.414a4 4 0 0 1 5.657 0l2.829 2.828a4 4 0 0 1 0 5.657l-16.97 16.97a4 4 0 0 1-5.658 0l-2.828-2.828a4 4 0 0 1 0-5.657l1.414-1.414-9.9-9.9-19.091 19.092.707.707a5 5 0 0 1 0 7.071l-26.87 26.87a5 5 0 0 1-7.071 0l-7.071-7.07a5 5 0 0 1 0-7.072l26.87-26.87a5 5 0 0 1 7.07 0l.708.707z" fill="#000" fill-rule="evenodd"/></svg>