<svg width="128" height="128" xmlns="http://www.w3.org/2000/svg"><path d="M82.267 11.556l33.941 33.941a6 6 0 0 1 0 8.486l-62.225 62.225a6 6 0 0 1-8.486 0l-33.94-33.941a6 6 0 0 1 0-8.485l62.225-62.226a6 6 0 0 1 8.485 0zm18.385 41.013a4 4 0 1 0 5.657-5.657 4 4 0 0 0-5.657 5.657zm16.263 17.677a1 1 0 0 0 0 1.414l1.414 1.415a1 1 0 0 1 0 1.414l-1.414 1.414a1 1 0 0 1-1.414 0l-1.414-1.414a1 1 0 0 0-1.414 0l-.707.707a1 1 0 0 1-1.415 0l-6.364-6.364 7.071-7.071 6.364 6.364a1 1 0 0 1 0 1.414l-.707.707zm-14.142 14.142a1 1 0 0 0 0 1.415l1.414 1.414a1 1 0 0 1 0 1.414l-1.414 1.414a1 1 0 0 1-1.414 0l-1.414-1.414a1 1 0 0 0-1.415 0l-.707.707a1 1 0 0 1-1.414 0l-6.364-6.364 7.071-7.07 6.364 6.363a1 1 0 0 1 0 1.414l-.707.707zM88.631 98.53a1 1 0 0 0 0 1.415l1.414 1.414a1 1 0 0 1 0 1.414l-1.414 1.414a1 1 0 0 1-1.414 0l-1.414-1.414a1 1 0 0 0-1.415 0l-.707.707a1 1 0 0 1-1.414 0l-6.364-6.364 7.071-7.07 6.364 6.363a1 1 0 0 1 0 1.414l-.707.707zm-14.142 14.143a1 1 0 0 0 0 1.414l1.414 1.414a1 1 0 0 1 0 1.414l-1.414 1.414a1 1 0 0 1-1.414 0l-1.415-1.414a1 1 0 0 0-1.414 0l-.707.707a1 1 0 0 1-1.414 0l-6.364-6.364 7.071-7.07 6.364 6.363a1 1 0 0 1 0 1.415l-.707.707zM57.519 10.849l.706-.707a1 1 0 0 1 1.415 0l6.364 6.364-7.071 7.071-6.364-6.364a1 1 0 0 1 0-1.414l.707-.707a1 1 0 0 0 0-1.414l-1.415-1.415a1 1 0 0 1 0-1.414l1.415-1.414a1 1 0 0 1 1.414 0l1.414 1.414a1 1 0 0 0 1.414 0zM43.375 24.991l.707-.707a1 1 0 0 1 1.414 0l6.364 6.364-7.07 7.071-6.365-6.364a1 1 0 0 1 0-1.414l.708-.707a1 1 0 0 0 0-1.414l-1.415-1.414a1 1 0 0 1 0-1.415l1.415-1.414a1 1 0 0 1 1.414 0l1.414 1.414a1 1 0 0 0 1.414 0zM29.234 39.134l.707-.708a1 1 0 0 1 1.414 0l6.364 6.364-7.07 7.071-6.365-6.364a1 1 0 0 1 0-1.414l.707-.707a1 1 0 0 0 0-1.414l-1.414-1.414a1 1 0 0 1 0-1.414l1.414-1.415a1 1 0 0 1 1.415 0l1.414 1.415a1 1 0 0 0 1.414 0zM15.092 53.276l.707-.707a1 1 0 0 1 1.414 0l6.364 6.364-7.07 7.07-6.365-6.363a1 1 0 0 1 0-1.415l.707-.707a1 1 0 0 0 0-1.414L9.435 54.69a1 1 0 0 1 0-1.414l1.414-1.415a1 1 0 0 1 1.414 0l1.415 1.415a1 1 0 0 0 1.414 0z" fill="#000" fill-rule="evenodd"/></svg>