<svg width="128" height="128" xmlns="http://www.w3.org/2000/svg"><path d="M14 9h100a5 5 0 0 1 5 5v100a5 5 0 0 1-5 5H14a5 5 0 0 1-5-5V14a5 5 0 0 1 5-5zm11.604 21c-.886 0-1.604.716-1.604 1.6v12.8c0 .884.718 1.6 1.604 1.6h12.832c.885 0 1.604-.716 1.604-1.6V31.6c0-.884-.719-1.6-1.604-1.6H25.604zm20.851.8c-.885 0-1.604.716-1.604 1.6v11.2c0 .884.719 1.6 1.604 1.6h56.941c.886 0 1.604-.716 1.604-1.6V32.4c0-.884-.718-1.6-1.604-1.6h-56.94zM25.604 56c-.886 0-1.604.716-1.604 1.6v12.8c0 .884.718 1.6 1.604 1.6h12.832c.885 0 1.604-.716 1.604-1.6V57.6c0-.884-.719-1.6-1.604-1.6H25.604zm20.851.8c-.885 0-1.604.716-1.604 1.6v11.2c0 .884.719 1.6 1.604 1.6h56.941c.886 0 1.604-.716 1.604-1.6V58.4c0-.884-.718-1.6-1.604-1.6h-56.94zM25.604 82c-.886 0-1.604.716-1.604 1.6v12.8c0 .884.718 1.6 1.604 1.6h12.832c.885 0 1.604-.716 1.604-1.6V83.6c0-.884-.719-1.6-1.604-1.6H25.604zm20.851.8c-.885 0-1.604.716-1.604 1.6v11.2c0 .884.719 1.6 1.604 1.6h56.941c.886 0 1.604-.716 1.604-1.6V84.4c0-.884-.718-1.6-1.604-1.6h-56.94z" fill="#000" fill-rule="evenodd"/></svg>