<svg width="110" height="110" xmlns="http://www.w3.org/2000/svg"><g fill="#000" fill-rule="evenodd"><path d="M32.001 55a2.245 2.245 0 0 1 .673-1.675l26.033-25.66a2.325 2.325 0 0 1 3.254 0 2.245 2.245 0 0 1 0 3.207L37.483 55l24.478 24.128a2.245 2.245 0 0 1 0 3.208 2.325 2.325 0 0 1-3.254 0L32.674 56.675A2.245 2.245 0 0 1 32.001 55zm15.365 0a2.245 2.245 0 0 1 .673-1.675l26.033-25.66a2.325 2.325 0 0 1 3.254 0 2.245 2.245 0 0 1 0 3.207L52.848 55l24.478 24.128a2.245 2.245 0 0 1 0 3.208 2.325 2.325 0 0 1-3.254 0L48.039 56.675A2.245 2.245 0 0 1 47.366 55z"/><path d="M55 110C24.624 110 0 85.376 0 55S24.624 0 55 0s55 24.624 55 55-24.624 55-55 55zm0-7c26.51 0 48-21.49 48-48S81.51 7 55 7 7 28.49 7 55s21.49 48 48 48z"/></g></svg>