<svg width="128" height="128" xmlns="http://www.w3.org/2000/svg"><path d="M99.24 25.467c-.911.032-2.246.228-4.004.586-1.757.358-3.19.895-4.297 1.611-1.106.749-1.871 2.295-2.294 4.639-.424 2.343-.635 5.208-.635 8.593v30.127c0 3.842-.798 7.178-2.393 10.01-1.595 2.832-3.694 5.16-6.299 6.983-2.571 1.757-5.281 3.019-8.13 3.784-2.848.765-5.574 1.147-8.178 1.147-4.167 0-7.878-.545-11.133-1.635-3.255-1.091-5.99-2.564-8.203-4.42-2.181-1.855-3.825-3.979-4.932-6.371a17.652 17.652 0 0 1-1.66-7.496V32.06c0-1.14-.187-2.092-.561-2.857-.375-.765-1.132-1.473-2.271-2.124-.814-.456-1.855-.822-3.125-1.099-1.27-.276-2.311-.447-3.125-.512V22h28.857v3.467c-.911.032-2.058.179-3.442.44-1.383.26-2.4.504-3.052.732-1.106.39-1.847 1.041-2.221 1.953-.375.911-.562 1.904-.562 2.978v38.282c0 1.855.204 3.8.61 5.835a15.276 15.276 0 0 0 2.417 5.688c1.27 1.79 2.995 3.255 5.176 4.395 2.181 1.139 5.176 1.709 8.985 1.709 3.58 0 6.583-.57 9.008-1.71 2.426-1.139 4.338-2.636 5.738-4.492 1.334-1.757 2.278-3.597 2.832-5.517.553-1.92.83-3.858.83-5.81V41.53c0-3.613-.26-6.567-.781-8.862s-1.286-3.8-2.295-4.517c-1.14-.813-2.694-1.448-4.663-1.904-1.97-.456-3.475-.716-4.517-.781V22h28.32v3.467zM26 101h76v6H26v-6z" fill="#000" fill-rule="evenodd"/></svg>