<svg width="128" height="128" xmlns="http://www.w3.org/2000/svg"><path d="M23 20.5a2.5 2.5 0 0 0-2.5 2.5v50a2.5 2.5 0 0 0 2.5 2.5h9a2.5 2.5 0 0 0 2.5-2.5V23a2.5 2.5 0 0 0-2.5-2.5h-9zm18.934 57.366l20.088 29.484a2.5 2.5 0 0 0 3.63.542l5.376-4.312a2.5 2.5 0 0 0 .88-2.475l-5.5-25.605H106a2.5 2.5 0 0 0 2.5-2.5V56.18a2.5 2.5 0 0 0-.22-1.028L93.33 21.973a2.5 2.5 0 0 0-2.28-1.473H44a2.5 2.5 0 0 0-2.5 2.5v53.459c0 .502.151.992.434 1.407z" stroke="#000" stroke-width="5" fill="none" fill-rule="evenodd"/></svg>