<svg width="128" height="128" xmlns="http://www.w3.org/2000/svg"><g fill="none" fill-rule="evenodd"><path d="M29.902 24.298l39.395-3.03a5 5 0 0 1 3.919 1.45l44.336 44.336a5 5 0 0 1 0 7.071l-42.427 42.427a5 5 0 0 1-7.07 0L23.717 72.216a5 5 0 0 1-1.45-3.92L25.3 28.9a5 5 0 0 1 4.602-4.602z" fill="#000"/><path d="M23.902 23.298l39.395-3.03a5 5 0 0 1 3.919 1.45l44.336 44.336a5 5 0 0 1 0 7.071l-42.427 42.427a5 5 0 0 1-7.07 0L17.717 71.216a5 5 0 0 1-1.45-3.92L19.3 27.9a5 5 0 0 1 4.602-4.602z" fill="#FFF"/><path d="M17.902 23.298l39.395-3.03a5 5 0 0 1 3.919 1.45l44.336 44.336a5 5 0 0 1 0 7.071l-42.427 42.427a5 5 0 0 1-7.07 0L11.717 71.216a5 5 0 0 1-1.45-3.92L13.3 27.9a5 5 0 0 1 4.602-4.602zm24.01 28.614c3.905-3.905 3.905-10.237 0-14.142-3.905-3.905-10.237-3.905-14.142 0-3.905 3.905-3.905 10.237 0 14.142 3.905 3.905 10.237 3.905 14.142 0z" fill="#000"/></g></svg>