<svg width="128" height="128" xmlns="http://www.w3.org/2000/svg"><g fill="#000" fill-rule="evenodd"><path d="M71.2 83.047H52.73a2 2 0 0 1-2-2v-.227c0-3.789.43-6.865 1.29-9.228.859-2.363 2.138-4.522 3.837-6.475 1.7-1.953 5.518-5.39 11.456-10.312 3.164-2.578 4.746-4.942 4.746-7.09 0-2.149-.635-3.819-1.905-5.01-1.27-1.191-3.193-1.787-5.771-1.787-2.774 0-5.069.918-6.885 2.754-1.069 1.08-2.1 3.702-3.092 7.866a2 2 0 0 1-2.191 1.521l-18.666-2.31a2 2 0 0 1-1.684-2.513c2.422-8.828 5.263-14.812 8.524-17.953 5.293-5.097 13.408-7.646 24.345-7.646 8.516 0 15.391 1.777 20.625 5.332 7.11 4.804 10.664 11.21 10.664 19.218 0 3.32-.918 6.524-2.753 9.61-1.836 3.086-5.586 6.855-11.25 11.308-3.946 3.125-6.436 5.635-7.471 7.53-.574 1.05-1.029 2.936-1.364 5.656a2 2 0 0 1-1.985 1.756zM54.969 88.965h13.847a5 5 0 0 1 5 5V105a5 5 0 0 1-5 5H54.97a5 5 0 0 1-5-5V93.965a5 5 0 0 1 5-5z"/></g></svg>