<svg width="128" height="128" xmlns="http://www.w3.org/2000/svg"><path d="M64 85H16a2 2 0 0 0-2 2v8a2 2 0 0 0 2 2h48v3a2 2 0 0 0 2 2h6a2 2 0 0 0 2-2v-3h38a2 2 0 0 0 2-2v-8a2 2 0 0 0-2-2H74v-3a2 2 0 0 0-2-2h-6a2 2 0 0 0-2 2v3zM36 58H16a2 2 0 0 0-2 2v8a2 2 0 0 0 2 2h20v3a2 2 0 0 0 2 2h6a2 2 0 0 0 2-2v-3h66a2 2 0 0 0 2-2v-8a2 2 0 0 0-2-2H46v-3a2 2 0 0 0-2-2h-6a2 2 0 0 0-2 2v3zm44-27H16a2 2 0 0 0-2 2v8a2 2 0 0 0 2 2h64v3a2 2 0 0 0 2 2h6a2 2 0 0 0 2-2v-3h22a2 2 0 0 0 2-2v-8a2 2 0 0 0-2-2H90v-3a2 2 0 0 0-2-2h-6a2 2 0 0 0-2 2v3z" fill="#000" fill-rule="evenodd"/></svg>