<svg width="110" height="110" xmlns="http://www.w3.org/2000/svg"><g fill="#000" fill-rule="evenodd"><path d="M46.064 66.428L32.776 53.166a4.561 4.561 0 0 0-6.442 0 4.54 4.54 0 0 0 0 6.43L42.44 75.667a4.551 4.551 0 0 0 3.66 1.311 4.55 4.55 0 0 0 3.596-1.316l34.97-34.902a4.54 4.54 0 0 0 0-6.43 4.561 4.561 0 0 0-6.441 0l-32.16 32.097z"/><path d="M55 110C24.624 110 0 85.376 0 55S24.624 0 55 0s55 24.624 55 55-24.624 55-55 55zm0-7c26.51 0 48-21.49 48-48S81.51 7 55 7 7 28.49 7 55s21.49 48 48 48z"/></g></svg>