<svg width="81" height="94" xmlns="http://www.w3.org/2000/svg"><path d="M33 33.885V5a5 5 0 0 1 5-5h4a5 5 0 0 1 5 5v29.606l23.905-16.738a5 5 0 0 1 6.963 1.228l2.294 3.276a5 5 0 0 1-1.227 6.964L52.719 47.692l26.216 18.356a5 5 0 0 1 1.227 6.964l-2.294 3.277a5 5 0 0 1-6.963 1.227L47 60.778V89a5 5 0 0 1-5 5h-4a5 5 0 0 1-5-5V61.5L10.126 77.516a5 5 0 0 1-6.964-1.227L.868 73.012a5 5 0 0 1 1.228-6.964L28.31 47.692 2.096 29.336a5 5 0 0 1-1.228-6.964l2.294-3.276a5 5 0 0 1 6.964-1.228L33 33.885z" fill="#000" fill-rule="evenodd"/></svg>